STARTFONT 2.3
FONT -FontForge-Zen Tokyo Zoo-Book-R-Normal--24-240-72-72-P-112-ISO10646-1
SIZE 24 72 72  4
FONTBOUNDINGBOX 32 32 -3 -6
COMMENT "Generated by fontforge, http://fontforge.sourceforge.net"
COMMENT "Copyright 2021 The Zen Tokyo Zoo Project Authors (https://github.com/googlefonts/zen-tokyo-zoo)"
STARTPROPERTIES 40
FOUNDRY "FontForge"
FAMILY_NAME "Zen Tokyo Zoo"
WEIGHT_NAME "Book"
SLANT "R"
SETWIDTH_NAME "Normal"
ADD_STYLE_NAME ""
PIXEL_SIZE 24
POINT_SIZE 240
RESOLUTION_X 72
RESOLUTION_Y 72
SPACING "P"
AVERAGE_WIDTH 112
CHARSET_REGISTRY "ISO10646"
CHARSET_ENCODING "1"
FONTNAME_REGISTRY ""
CHARSET_COLLECTIONS "ISO10646-1"
BITS_PER_PIXEL 4
FONT_NAME "ZenTokyoZoo-Regular"
FACE_NAME "Zen Tokyo Zoo Regular"
COPYRIGHT "Copyright 2021 The Zen Tokyo Zoo Project Authors (https://github.com/googlefonts/zen-tokyo-zoo)"
FONT_VERSION "1.002; ttfautohint (v1.8.3)"
FONT_ASCENT 19
FONT_DESCENT 5
UNDERLINE_POSITION -3
UNDERLINE_THICKNESS 1
X_HEIGHT 9
CAP_HEIGHT 19
RAW_ASCENT 800
RAW_DESCENT 200
NORM_SPACE 7
RELATIVE_WEIGHT 40
RELATIVE_SETWIDTH 50
SUPERSCRIPT_X 0
SUPERSCRIPT_Y 8
SUPERSCRIPT_SIZE 14
SUBSCRIPT_X 0
SUBSCRIPT_Y 1
SUBSCRIPT_SIZE 14
AVG_LOWERCASE_WIDTH 100
AVG_UPPERCASE_WIDTH 180
ENDPROPERTIES
CHARS 338
STARTCHAR CR
ENCODING 13
SWIDTH 600 0
DWIDTH 14 0
BBX 1 1 0 0
BITMAP
00
ENDCHAR
STARTCHAR space
ENCODING 32
SWIDTH 280 0
DWIDTH 7 0
BBX 1 1 0 0
BITMAP
00
ENDCHAR
STARTCHAR exclam
ENCODING 33
SWIDTH 196 0
DWIDTH 5 0
BBX 3 10 1 0
BITMAP
B380
B380
B380
B380
B380
B380
B380
0000
B380
B380
ENDCHAR
STARTCHAR quotedbl
ENCODING 34
SWIDTH 302 0
DWIDTH 7 0
BBX 7 3 0 7
BITMAP
65B0A2A0
65B0A2A0
65B0A2A0
ENDCHAR
STARTCHAR numbersign
ENCODING 35
SWIDTH 513 0
DWIDTH 12 0
BBX 11 10 1 0
BITMAP
0056B0538000
1973B7BBBB10
00A2A0000000
17B37ABBBB10
000001973000
9BBBB58A5400
0000055B0000
9BBBA73B6400
0729092A0000
0A2A0B380000
ENDCHAR
STARTCHAR dollar
ENCODING 36
SWIDTH 379 0
DWIDTH 9 0
BBX 9 12 0 -1
BITMAP
0000B00000
0074B28100
0A50B04B00
2964B36620
2978500000
0A548B8100
007B834B00
0000487740
2463B1A640
0B21B12B10
02A4B2A200
0000B00000
ENDCHAR
STARTCHAR percent
ENCODING 37
SWIDTH 493 0
DWIDTH 12 0
BBX 12 10 0 0
BITMAP
06CB70057920
3A9A931A5700
55995693A000
2B10A8792000
04BB6A570000
000093A7BB30
00057978A7B1
001A57848A83
0093A067A6B1
04793008BB40
ENDCHAR
STARTCHAR ampersand
ENCODING 38
SWIDTH 487 0
DWIDTH 12 0
BBX 10 10 1 0
BITMAP
003BBB7000
00B6C99400
029A2B4800
01A6747500
00A2B26000
1C2B2B0A2C
9535959159
B1C0859581
77AA0B3B20
08BB82B3B0
ENDCHAR
STARTCHAR quotesingle
ENCODING 39
SWIDTH 146 0
DWIDTH 4 0
BBX 3 3 0 7
BITMAP
65B0
65B0
65B0
ENDCHAR
STARTCHAR parenleft
ENCODING 40
SWIDTH 210 0
DWIDTH 5 0
BBX 5 11 0 -1
BITMAP
01A740
074B00
0B4700
1A7400
38A100
47A100
38A100
1A7400
0B4700
074B00
01A740
ENDCHAR
STARTCHAR parenright
ENCODING 41
SWIDTH 210 0
DWIDTH 5 0
BBX 5 11 0 -1
BITMAP
48A200
0B3800
074B00
038A10
01A740
00B640
01A740
038A10
074B00
0B3800
38A200
ENDCHAR
STARTCHAR asterisk
ENCODING 42
SWIDTH 358 0
DWIDTH 9 0
BBX 7 6 1 4
BITMAP
00862000
34753600
45104520
36002610
08436500
04818300
ENDCHAR
STARTCHAR plus
ENCODING 43
SWIDTH 394 0
DWIDTH 9 0
BBX 9 7 0 1
BITMAP
00064B0000
00064B0000
1B864B3B60
00064B0000
1B864B3B60
00064B0000
00064B0000
ENDCHAR
STARTCHAR comma
ENCODING 44
SWIDTH 216 0
DWIDTH 5 0
BBX 4 3 1 -1
BITMAP
57A1
92B0
B480
ENDCHAR
STARTCHAR hyphen
ENCODING 45
SWIDTH 326 0
DWIDTH 8 0
BBX 6 3 1 4
BITMAP
9BBBB7
000000
9BBBB7
ENDCHAR
STARTCHAR period
ENCODING 46
SWIDTH 176 0
DWIDTH 4 0
BBX 4 2 0 0
BITMAP
1A74
1A74
ENDCHAR
STARTCHAR slash
ENCODING 47
SWIDTH 298 0
DWIDTH 7 0
BBX 7 10 0 0
BITMAP
00039840
00084B00
000B3900
00297400
0074B000
00B2A000
02975000
074B0000
0B2A0000
2A650000
ENDCHAR
STARTCHAR zero
ENCODING 48
SWIDTH 306 0
DWIDTH 7 0
BBX 7 10 0 0
BITMAP
03BBB600
1B5C8940
37A1B380
47B0A290
47B0A290
47B0A290
47B0A290
37A1B380
1B5C8940
03BBB600
ENDCHAR
STARTCHAR one
ENCODING 49
SWIDTH 306 0
DWIDTH 7 0
BBX 6 10 1 0
BITMAP
9B2892
002892
9B2892
002892
002892
002892
002892
002892
002892
002892
ENDCHAR
STARTCHAR two
ENCODING 50
SWIDTH 299 0
DWIDTH 7 0
BBX 7 10 0 0
BITMAP
03BBB500
0B5C8A20
1442C560
00095650
00592B00
02B1B200
0B2A4000
01010000
3BBBBB40
3BBBBB40
ENDCHAR
STARTCHAR three
ENCODING 51
SWIDTH 324 0
DWIDTH 8 0
BBX 7 10 0 0
BITMAP
02AAA810
1A2BA490
234473A0
00000090
0001A710
0001A690
243283B0
2A2BA0A0
0A4004A0
019AA910
ENDCHAR
STARTCHAR four
ENCODING 52
SWIDTH 339 0
DWIDTH 8 0
BBX 8 10 0 0
BITMAP
00093A20
002A3900
0093A200
02A39000
093A2000
00000A46
3BBB0A46
00000A46
3BBB0A46
00000A46
ENDCHAR
STARTCHAR five
ENCODING 53
SWIDTH 363 0
DWIDTH 9 0
BBX 7 10 1 0
BITMAP
2BBBBB30
2BBBBB30
00000000
38920000
3892B400
38922B20
0000B470
4480B460
1B5B6B20
04BBB400
ENDCHAR
STARTCHAR six
ENCODING 54
SWIDTH 306 0
DWIDTH 7 0
BBX 7 10 0 0
BITMAP
03BBB700
1B5C8850
37A15140
47B00000
47B3B400
47B11B30
47B3B380
37A1B380
1B5C8A30
03BBB600
ENDCHAR
STARTCHAR seven
ENCODING 55
SWIDTH 298 0
DWIDTH 7 0
BBX 7 10 0 0
BITMAP
1BBBBB50
00000000
1BBBBB50
00000000
00065B00
000A2A00
001B6600
0057A100
0092B000
00B47000
ENDCHAR
STARTCHAR eight
ENCODING 56
SWIDTH 306 0
DWIDTH 7 0
BBX 7 10 0 0
BITMAP
02BBB600
0B6C8940
38A2B390
384A3580
0C14B320
04B32C20
381A6480
3791C380
1B5C9A40
03BBB600
ENDCHAR
STARTCHAR nine
ENCODING 57
SWIDTH 306 0
DWIDTH 7 0
BBX 7 10 0 0
BITMAP
02ABB600
0B5B8940
38A2B380
3868A290
0B31A290
0196A290
0000A290
2451B380
1B5B8940
04BBB600
ENDCHAR
STARTCHAR colon
ENCODING 58
SWIDTH 176 0
DWIDTH 4 0
BBX 4 6 0 0
BITMAP
1A74
1A74
0000
0000
1A74
1A74
ENDCHAR
STARTCHAR semicolon
ENCODING 59
SWIDTH 217 0
DWIDTH 5 0
BBX 4 7 1 -1
BITMAP
1A74
1A74
0000
1331
65B0
B2A0
5230
ENDCHAR
STARTCHAR less
ENCODING 60
SWIDTH 450 0
DWIDTH 11 0
BBX 9 11 1 -1
BITMAP
0000000280
0000018A20
00006B44A0
000673A810
11B7182000
8B36B40000
02A928A200
0004B62A80
000006B430
0000001990
0000000020
ENDCHAR
STARTCHAR equal
ENCODING 61
SWIDTH 344 0
DWIDTH 8 0
BBX 8 6 0 1
BITMAP
1BBBBBB3
1BBBBBB3
00000000
00000000
1BBBBBB3
1BBBBBB3
ENDCHAR
STARTCHAR greater
ENCODING 62
SWIDTH 450 0
DWIDTH 11 0
BBX 9 10 1 0
BITMAP
B400000000
29A2000000
B63B810000
07B35B6000
0019A27B30
00153B7230
07B3533000
B63B700000
29A2000000
B300000000
ENDCHAR
STARTCHAR question
ENCODING 63
SWIDTH 346 0
DWIDTH 8 0
BBX 7 10 1 0
BITMAP
08BBA100
86AB5A00
61547A10
00094A10
00682B00
00B1C300
00B66000
00A64000
00211000
00B64000
ENDCHAR
STARTCHAR at
ENCODING 64
SWIDTH 490 0
DWIDTH 12 0
BBX 11 10 0 0
BITMAP
0007BBBB5000
01B8ABB98900
086A8BABD660
18A5ABA94890
368881593980
368890493990
1894AB99B890
08697B88BA20
01B799972000
0007BBB93000
ENDCHAR
STARTCHAR A
ENCODING 65
SWIDTH 798 0
DWIDTH 19 0
BBX 19 20 0 0
BITMAP
0000000A2B5600000000
0000001A66A430000000
00000065B2A380000000
000000B2A661B0000000
000002975B2884000000
0000074B2A0B39000000
00000B2A75584B000000
00002974B0C397500000
000084B29084B2A00000
0000B397403974B10000
0003884B000B2A650000
00083B3900075B2A0000
000B38830002A65A1000
004893B1BBB4B2A66000
0093B488BBBA66A2B000
00B4793000001B56A200
04792B3BBBBB5A2B5700
0A2B47000000056A2B00
1B579200000001B57920
56A2B00000000092B470
ENDCHAR
STARTCHAR B
ENCODING 66
SWIDTH 784 0
DWIDTH 19 0
BBX 18 20 1 0
BITMAP
B3892BBBBBBBA30000
B389100000002A6000
B3892BBBBBBB60A300
B389100000017A1B00
B3892BBBBBBA275A10
B38910000002B39830
B38910000000A39830
B38910000002B75A10
B3892BBBBBBB9A2A00
B3892BBBBBBB61B300
B389100000004B4660
B3892BBBBBBB8252B0
B389100000001784C0
B389100000000B56A1
B389100000000B47B0
B389100000007775B0
B3893BBBBBBB71B570
B389100000003B6B10
B3893BBBBBBBA8B200
B3893BBBBBBBB61000
ENDCHAR
STARTCHAR C
ENCODING 67
SWIDTH 776 0
DWIDTH 19 0
BBX 18 20 0 0
BITMAP
00000027BBBBBA5000
000019A89BBBA77C60
0002B6B8300027B499
001B5C228BBBA51B41
00A4C17A400028B240
048948700000003400
0A3B49000000000000
0B56A2000000000000
2993B0000000000000
47A2A0000000000000
47A2A0000000000000
2993B0000000000000
0B56A2000000000000
0A3B49000000000000
048948700000002300
00A4C18A400027B230
001C5C228BBBA51A51
0002C6A8300027B498
000019A89BBBA78C60
00000027BBBBBA5000
ENDCHAR
STARTCHAR D
ENCODING 68
SWIDTH 806 0
DWIDTH 19 0
BBX 18 20 1 0
BITMAP
B3892BBBBB94000000
B38910000038B30000
B3892BBBCA611B6000
B3891000016C60A500
B3892BBBBA50890B20
B3891000027B276390
B38910000002B2B2B1
B389100000003A5875
B389100000000A2C47
B38910000000075C39
B38910000000056B39
B38910000000075C47
B389100000000A2C75
B389100000003A58B1
B38910000002C2B590
B3891000027B277B20
B3892BBBBA518AA500
B3891000016C8B6000
B3892BBBCAA9C40000
B3892BBBBB94000000
ENDCHAR
STARTCHAR E
ENCODING 69
SWIDTH 677 0
DWIDTH 16 0
BBX 15 20 1 0
BITMAP
B3892BBBBBBBBB60
B389100000000000
B3892BBBBBBBBB60
B389100000000000
B3892BBBBBBBBB60
B389100000000000
B389100000000000
B389100000000000
B3892BBBBBBBB200
B389100000000000
B3892BBBBBBBB200
B3892BBBBBBBB200
B389100000000000
B389100000000000
B389100000000000
B389100000000000
B3892BBBBBBBBB60
B389100000000000
B3892BBBBBBBBB60
B3892BBBBBBBBB60
ENDCHAR
STARTCHAR F
ENCODING 70
SWIDTH 677 0
DWIDTH 16 0
BBX 15 20 1 0
BITMAP
B3892BBBBBBBBB60
B389100000000000
B3892BBBBBBBBB60
B389100000000000
B3892BBBBBBBBB60
B389100000000000
B389100000000000
B389100000000000
B3892BBBBBBBB200
B389100000000000
B3892BBBBBBBB200
B3892BBBBBBBB200
B389100000000000
B389100000000000
B389100000000000
B389100000000000
B389100000000000
B389100000000000
B389100000000000
B389100000000000
ENDCHAR
STARTCHAR G
ENCODING 71
SWIDTH 872 0
DWIDTH 21 0
BBX 21 20 0 0
BITMAP
00000027BBBBBA50000000
000019A89BBBA88C400000
0002B6B8300016C6A70000
001B5C228BBBA51A786000
00A4C17A400028B2A4A100
048948700000002C280000
0A3B490000000003400000
0B56A20000000000000000
2993B00000000000000000
47A2A000002BBBBBBBBB20
47A2A000002BBBBBBBBB20
2993B00000000000000000
0B56A200002BBBBBBBBB20
0A3B490000000002221300
048948700000003C2C3A00
00A4C18A400028B295B300
001C5C228BBBA51A686000
0002C6A8300016C6A70000
000019A89BBBA98B400000
00000027BBBBB950000000
ENDCHAR
STARTCHAR H
ENCODING 72
SWIDTH 781 0
DWIDTH 19 0
BBX 17 20 1 0
BITMAP
B3891000000056B380
B3891000000056B380
B3891000000056B380
B3891000000056B380
B3891000000056B380
B3891000000056B380
B3891000000056B380
B3891000000056B380
B3892BBBBBB956B380
B3891000000056B380
B3892BBBBBB956B380
B3892BBBBBB956B380
B3891000000056B380
B3891000000056B380
B3891000000056B380
B3891000000056B380
B3891000000056B380
B3891000000056B380
B3891000000056B380
B3891000000056B380
ENDCHAR
STARTCHAR I
ENCODING 73
SWIDTH 262 0
DWIDTH 6 0
BBX 5 20 1 0
BITMAP
B38910
B38910
B38910
B38910
B38910
B38910
B38910
B38910
B38910
B38910
B38910
B38910
B38910
B38910
B38910
B38910
B38910
B38910
B38910
B38910
ENDCHAR
STARTCHAR J
ENCODING 74
SWIDTH 674 0
DWIDTH 16 0
BBX 15 20 0 0
BITMAP
00000000000B56B0
00000000000B56B0
00000000000B56B0
00000000000B56B0
00000000000B56B0
00000000000B56B0
00000000000B56B0
00000000000B56B0
00000000000B56B0
00000000000B56B0
00000000000B56B0
00000000000B56B0
63945000000B56B0
65B38000001B65B0
47A2C000006784B0
0B576A1005B1B660
076B34ACC8186C10
00B5B61003A8A400
001A98BBB98B4000
00004ABBBB710000
ENDCHAR
STARTCHAR K
ENCODING 75
SWIDTH 739 0
DWIDTH 18 0
BBX 17 20 1 0
BITMAP
B3891000001B2B2B00
B389100000A4A3B300
B38910000586867000
B38910001B2B3B0000
B3891000A3B3B20000
B38910067768600000
B38910063B3A000000
B389109292B1000000
B389153B0940000000
B38925958200000000
B38994959500000000
B3892B2B3B20000000
B38912B2B3B0000000
B38910585958000000
B38910095959500000
B3891000B2B3B20000
B38910002B2B3B0000
B38910000585959000
B38910000095959500
B3891000000B2B3B20
ENDCHAR
STARTCHAR L
ENCODING 76
SWIDTH 604 0
DWIDTH 15 0
BBX 14 20 1 0
BITMAP
B3891000000000
B3891000000000
B3891000000000
B3891000000000
B3891000000000
B3891000000000
B3891000000000
B3891000000000
B3891000000000
B3891000000000
B3891000000000
B3891000000000
B3891000000000
B3891000000000
B3891000000000
B3891000000000
B3892BBBBBBBB2
B3891000000000
B3892BBBBBBBB2
B3892BBBBBBBB2
ENDCHAR
STARTCHAR M
ENCODING 77
SWIDTH 909 0
DWIDTH 22 0
BBX 20 20 1 0
BITMAP
B3891000000000047A29
B3892100000000347A29
B3892900000001B47A29
B389185000000A347A29
B38922B1000058447A29
B3892B3A0001B2B47A29
B3891767600A3A347A29
B38923B2B25867547A29
B3892B2B2B32B3A47A29
B389168685863B247A29
B38910A3A3A375047A29
B389101B2B2B20047A29
B3891005849300047A29
B3891000A48100047A29
B38910001B1000047A29
B3891000041000047A29
B3891000000000047A29
B3891000000000047A29
B3891000000000047A29
B3891000000000047A29
ENDCHAR
STARTCHAR N
ENCODING 78
SWIDTH 796 0
DWIDTH 19 0
BBX 17 20 1 0
BITMAP
B389100000000B65B0
B389220000000B65B0
B3892B0000000B65B0
B389167000000B65B0
B38924A300000B65B0
B3892C2B00000B65B0
B389159680000B65B0
B3892594A3000B65B0
B3892B2C2B000B65B0
B38913A495800B65B0
B389108594A40B65B0
B389100B2C2C1B65B0
B3891003A4A52B65B0
B389100086850B65B0
B38910000B2B1B65B0
B389100003B32B65B0
B389100000760B65B0
B3891000000B1B65B0
B389100000022B65B0
B389100000000B65B0
ENDCHAR
STARTCHAR O
ENCODING 79
SWIDTH 894 0
DWIDTH 21 0
BBX 21 20 0 0
BITMAP
00000027BBBBB950000000
000019A89BBBA88B400000
0002B6B8300015B7970000
001B5C228BBBA508986000
00A4C17A400027B277A300
048948700000002C2B3A00
0A3B490000000003A48920
0B56A20000000000A2B560
2993B0000000000056B290
47A2A000000000003892A0
47A2A000000000003892A0
2993B0000000000056B290
0B56A20000000000A2B560
0A3B490000000003A48A20
048948700000002C2B3A00
00A4C18A400027B277A300
001C5C228BBBA508986000
0002C6A8300015B7970000
000019A89BBBA88B400000
00000027BBBBB950000000
ENDCHAR
STARTCHAR P
ENCODING 80
SWIDTH 743 0
DWIDTH 18 0
BBX 17 20 1 0
BITMAP
B3892BBBBBBBA30000
B389100000002A6000
B3892BBBBBBB60A300
B389100000017A1B00
B3892BBBBBBA275A10
B38910000002B39830
B38910000000A39830
B38910000002B75A10
B3892BBBBBBB9A2A00
B3892BBBBBBB61B300
B389100000004B4000
B3892BBBBBBB820000
B38910000000000000
B38910000000000000
B38910000000000000
B38910000000000000
B38910000000000000
B38910000000000000
B38910000000000000
B38910000000000000
ENDCHAR
STARTCHAR Q
ENCODING 81
SWIDTH 911 0
DWIDTH 22 0
BBX 21 20 0 0
BITMAP
00000027BBBBB950000000
000019A89BBBA99C400000
0002B6B8300015B8A70000
001B5C228BBBA508996000
00A4C17A400028B277B300
048948700000003C1B4A00
0A3B490000000004A48A20
0B56A20000000000B2B660
2993B0000000000066B390
47A2A0000000000047A3A0
47A2A0000000000048A2B0
2993B0000000004656B390
0B56A2000000043B51B570
0A3B4900000042B3B53A20
0489487000003B2B3C4500
00A4C18A400024B3B3C400
001C5C228BBBA33B3A3C30
0002C6A830002873B3A3C0
000019A89BBBA6443B3910
00000027BBBCBA72039000
ENDCHAR
STARTCHAR R
ENCODING 82
SWIDTH 745 0
DWIDTH 18 0
BBX 17 20 1 0
BITMAP
B3892BBBBBBBA30000
B389100000002A6000
B3892BBBBBBB60A300
B389100000017A1B00
B3892BBBBBBA275A10
B38910000002B39830
B38910000000A39830
B38910000002B75A10
B3892BBBBBBB9A2A00
B3892BBBBBBB61B300
B389100000004B4000
B3892BBBBBBB820000
B38910002141600000
B38910003975A20000
B38910000B2B480000
B389100004784B1000
B389100000B2A57000
B38910000066A2B000
B3891000000B396500
B389100000075A2B00
ENDCHAR
STARTCHAR S
ENCODING 83
SWIDTH 660 0
DWIDTH 16 0
BBX 16 20 0 0
BITMAP
00005ABBBB930000
002B88BBCA89A100
02C6B510028B5B00
094B15ABB934A660
0B65981002A4A2A0
2982B00000172100
2975B30000000000
0B2C39A510000000
0683C726AA500000
007926BB625B6000
000299426BA27900
0000016AA63B6670
0000000016B3B2B0
00000000001B4791
00317000000C38A1
2883A710029765B0
0B3B16BBBA42C580
03B5C510016C5C10
003C78BCBA89B200
00006ABBBB940000
ENDCHAR
STARTCHAR T
ENCODING 84
SWIDTH 641 0
DWIDTH 15 0
BBX 16 20 0 0
BITMAP
9BBBBBBBBBBBBBB2
0000000000000000
9BBBBBBBBBBBBBB2
0000000000000000
9BBBBBBBBBBBBBB2
0000013414000000
0000047A2A000000
0000047A2A000000
0000047A2A000000
0000047A2A000000
0000047A2A000000
0000047A2A000000
0000047A2A000000
0000047A2A000000
0000047A2A000000
0000047A2A000000
0000047A2A000000
0000047A2A000000
0000047A2A000000
0000047A2A000000
ENDCHAR
STARTCHAR U
ENCODING 85
SWIDTH 702 0
DWIDTH 17 0
BBX 15 20 1 0
BITMAP
B38910000047A2A0
B38910000047A2A0
B38910000047A2A0
B38910000047A2A0
B38910000047A2A0
B38910000047A2A0
B38910000047A2A0
B38910000047A2A0
B38910000047A2A0
B38910000047A2A0
B38910000047A2A0
B38910000047A2A0
B38910000047A290
A38830000056B380
83A4800000A2B560
48A1A61018838A10
0B5A17BBB61B5900
02B7B40005B6C100
003C89BBB98B2000
00016BBBBB500000
ENDCHAR
STARTCHAR V
ENCODING 86
SWIDTH 758 0
DWIDTH 18 0
BBX 18 20 0 0
BITMAP
56A2B0000000093B38
1B56A20000000C4893
0A2B560000004893C0
066A2B00000093B480
01A66A100000B48930
00B2A6600004893B00
0065B2B000093B4800
001A65B1000B489300
000B2A66004893B000
00065B2A0093B48000
0002A65B10B4893000
0000B2A654893B0000
000075B2A43B480000
00002A75B148930000
00000B2A7573B00000
0000074B2A24800000
000002974B09300000
000000B39746000000
00000084B290000000
0000003984B0000000
ENDCHAR
STARTCHAR W
ENCODING 87
SWIDTH 972 0
DWIDTH 23 0
BBX 23 20 0 0
BITMAP
65B2900000B56A100047A2A0
2983B00003893B000083B470
0B47A100074B380000B29830
0A2A65000A2A750001A65B00
065B39000B56A130047A2A00
03883B003893B370083B4700
00B57A1074B381B00B298300
00A2A750A2A751B01A65B000
0074B380B56A188347A2A000
003893B2893B0B4773B47000
000B56A14B380A2B32983000
000B2A741A75665B065B0000
00074B3856B1B398392A0000
0004792B43B083B575470000
0000B66B138057A2A0830000
0000B29747501A65B0B00000
000083B477100B3893700000
000047A2B100093B56100000
00001A65B000056A2A000000
00000B39830001A74B000000
ENDCHAR
STARTCHAR X
ENCODING 88
SWIDTH 712 0
DWIDTH 17 0
BBX 17 20 0 0
BITMAP
0B2B2B0000093B2B00
04966840003A587500
00A3B2B000A2C2B000
002A48760486693000
00094A2C1A2B3A0000
0001B3A58284A20000
00007693B2A4800000
00000C2B390B100000
000005875A35000000
000000B2C2B0000000
000001396785000000
00000A1A3B2C000000
00004852B496600000
0000B2B084A3B10000
000669491B3A580000
001B3A4806694B2000
0084A2B100C2B3A000
02B486600058769300
0A3B2B00000B2C2B00
496684000003A57850
ENDCHAR
STARTCHAR Y
ENCODING 89
SWIDTH 769 0
DWIDTH 18 0
BBX 19 20 0 0
BITMAP
6785940000000B2B2B10
0B2C2B00000067769400
03A496700001B3B3A000
0085A3B2000A3B2B1000
001C2B3B004967760000
0004967761C2B3B00000
0000A3B2C24A4B200000
00001B3B4A2967000000
000006775942C0000000
000000B2B2C230000000
00000025344400000000
00000005144100000000
0000000B298300000000
0000000B298300000000
0000000B298300000000
0000000B298300000000
0000000B298300000000
0000000B298300000000
0000000B298300000000
0000000B298300000000
ENDCHAR
STARTCHAR Z
ENCODING 90
SWIDTH 708 0
DWIDTH 17 0
BBX 17 20 0 0
BITMAP
00BBBBBBBBB2B49670
00000000000A3B2B00
00BBBBBBBB58769400
0000000000B2B3A000
00BBBBBBB8593B2000
000000002B49670000
00000000A3B2B00000
000000048669400000
0000000B2B3A000000
0000007693B2000000
000002B39670000000
00000A3B2B00000000
000049669400000000
0000B2B3A000000000
0007693B2000000000
002B39670000000000
00A3B2B2BBBBBBB000
049669400000000000
0B2B3A2BBBBBBBB000
7693B3BBBBBBBBB000
ENDCHAR
STARTCHAR bracketleft
ENCODING 91
SWIDTH 320 0
DWIDTH 8 0
BBX 6 11 1 -1
BITMAP
9379B5
B389B5
B38000
B38000
B38000
B38000
B38000
B38000
B389B5
B38000
9379B5
ENDCHAR
STARTCHAR backslash
ENCODING 92
SWIDTH 298 0
DWIDTH 7 0
BBX 7 10 0 0
BITMAP
2A650000
0B2A0000
074B0000
02975000
00B2A000
0074B000
00297400
000B3900
00084B00
00039840
ENDCHAR
STARTCHAR bracketright
ENCODING 93
SWIDTH 320 0
DWIDTH 8 0
BBX 6 11 1 -1
BITMAP
9B5936
9B5B47
000B47
000B47
000B47
000B47
000B47
000B47
9B5B47
000B47
9B5936
ENDCHAR
STARTCHAR asciicircum
ENCODING 94
SWIDTH 309 0
DWIDTH 7 0
BBX 6 5 1 6
BITMAP
001000
00B000
057700
1B2750
8592B1
ENDCHAR
STARTCHAR underscore
ENCODING 95
SWIDTH 472 0
DWIDTH 11 0
BBX 10 3 1 0
BITMAP
9BBBBBBBB1
0000000000
9BBBBBBBB1
ENDCHAR
STARTCHAR grave
ENCODING 96
SWIDTH 195 0
DWIDTH 5 0
BBX 3 3 1 11
BITMAP
5100
3900
0A30
ENDCHAR
STARTCHAR a
ENCODING 97
SWIDTH 414 0
DWIDTH 10 0
BBX 10 10 0 0
BITMAP
00065B5000
000B2BA000
002A77A100
0074BB5600
00B3892B00
0398237A20
084CBBC470
0B380093B0
488CBBC793
93B0000B48
ENDCHAR
STARTCHAR b
ENCODING 98
SWIDTH 423 0
DWIDTH 10 0
BBX 10 10 0 0
BITMAP
1A7CBBBA20
1A740003B0
1A7CBBC3A1
1A74003892
1A7CBBCCB0
1A7CBBC7C2
1A74000B66
1A74000B55
1A7CBBB6B1
1A7CBBBB40
ENDCHAR
STARTCHAR c
ENCODING 99
SWIDTH 446 0
DWIDTH 11 0
BBX 10 10 0 0
BITMAP
0006BBBB71
00A79CB758
095B500670
1B66000000
38A2000000
38A2000000
1A66000000
085B500660
00A79CB758
0006BBBB71
ENDCHAR
STARTCHAR d
ENCODING 100
SWIDTH 450 0
DWIDTH 11 0
BBX 10 10 0 0
BITMAP
1A7CBBB500
1A74001790
1A7CBB8176
1A74004B1B
1A7400075A
1A7400047A
1A7400075B
1A74004B76
1A7CBB9890
1A7CBBB500
ENDCHAR
STARTCHAR e
ENCODING 101
SWIDTH 363 0
DWIDTH 9 0
BBX 9 10 0 0
BITMAP
1A7CBBBB30
1A74000000
1A7CBBBB30
1A74000000
1A7CBBB600
1A7CBBB600
1A74000000
1A74000000
1A7CBBBB30
1A7CBBBB30
ENDCHAR
STARTCHAR f
ENCODING 102
SWIDTH 365 0
DWIDTH 9 0
BBX 9 10 0 0
BITMAP
1A7CBBBB30
1A74000000
1A7CBBBB30
1A74000000
1A7CBBB600
1A7CBBB600
1A74000000
1A74000000
1A74000000
1A74000000
ENDCHAR
STARTCHAR g
ENCODING 103
SWIDTH 483 0
DWIDTH 12 0
BBX 11 10 0 0
BITMAP
0006BBBB7100
00A79CB86C10
095B50059100
1B6600000000
38A2007BBBA0
38A200000000
1A660069CAB0
085B5006A670
00A79CB87A00
0006BBBB5000
ENDCHAR
STARTCHAR h
ENCODING 104
SWIDTH 428 0
DWIDTH 10 0
BBX 10 10 0 0
BITMAP
1A74000B65
1A74000B65
1A74000B65
1A74000B65
1A7CBBBB65
1A7CBBBB65
1A74000B65
1A74000B65
1A74000B65
1A74000B65
ENDCHAR
STARTCHAR i
ENCODING 105
SWIDTH 176 0
DWIDTH 4 0
BBX 4 10 0 0
BITMAP
1A74
1A74
1A74
1A74
1A74
1A74
1A74
1A74
1A74
1A74
ENDCHAR
STARTCHAR j
ENCODING 106
SWIDTH 390 0
DWIDTH 9 0
BBX 9 10 0 0
BITMAP
000000B560
000000B560
000000B560
000000B560
000000B560
000000B560
245100B650
2A76049A20
0A79BA8900
007CBC7000
ENDCHAR
STARTCHAR k
ENCODING 107
SWIDTH 381 0
DWIDTH 9 0
BBX 9 10 0 0
BITMAP
1A74067850
1A740C2B00
1A74769300
1A75B39000
1A78AB2000
1A76890000
1A7D3B3000
1A75B2C100
1A744A3B00
1A74077680
ENDCHAR
STARTCHAR l
ENCODING 108
SWIDTH 330 0
DWIDTH 8 0
BBX 8 10 0 0
BITMAP
1A740000
1A740000
1A740000
1A740000
1A740000
1A740000
1A740000
1A740000
1A7CBBB6
1A7CBBB6
ENDCHAR
STARTCHAR m
ENCODING 109
SWIDTH 501 0
DWIDTH 12 0
BBX 12 10 0 0
BITMAP
1A7A000097A1
1A7C6006C7A1
1A75B33B47A1
1A7C2BC2C7A1
1A78A4B987A1
1A74777847A1
1A740A3047A1
1A74011047A1
1A74000047A1
1A74000047A1
ENDCHAR
STARTCHAR n
ENCODING 110
SWIDTH 444 0
DWIDTH 11 0
BBX 10 10 0 0
BITMAP
1A7900092B
1A7D40092B
1A75C1092B
1A7B4A092B
1A7B68592B
1A74B3BB2B
1A742B3E2B
1A7405892B
1A7400AC2B
1A74001D2B
ENDCHAR
STARTCHAR o
ENCODING 111
SWIDTH 494 0
DWIDTH 12 0
BBX 12 10 0 0
BITMAP
0006BBBB5000
00A79CB88900
095B5006A760
1B66000084B0
38A2000047A1
38A2000047A1
1A66000084B0
085B5006A760
00A79CC88900
0006BBBB5000
ENDCHAR
STARTCHAR p
ENCODING 112
SWIDTH 412 0
DWIDTH 10 0
BBX 10 10 0 0
BITMAP
1A7CBBBA20
1A740002B0
1A7CBBC391
1A740038A1
1A7CBBB7A0
1A7CBBB910
1A74000000
1A74000000
1A74000000
1A74000000
ENDCHAR
STARTCHAR q
ENCODING 113
SWIDTH 494 0
DWIDTH 12 0
BBX 12 10 0 0
BITMAP
0006BBBB4000
00A79CB89800
095B5006A850
1B66000084B0
38A2000047A1
38A200026791
1A660012D4B0
085B506B3B90
00A79CCAB390
0006BBBA6A00
ENDCHAR
STARTCHAR r
ENCODING 114
SWIDTH 412 0
DWIDTH 10 0
BBX 10 10 0 0
BITMAP
1A7CBBBA20
1A740002B0
1A7CBBC391
1A740038A1
1A7CBBB7B0
1A7CBDDB10
1A740C2900
1A74075B10
1A7402A660
1A7400A2B0
ENDCHAR
STARTCHAR s
ENCODING 115
SWIDTH 379 0
DWIDTH 9 0
BBX 9 10 0 0
BITMAP
007BBB9200
0A8ABA5B00
2A93025310
283B940000
0B3037B400
019B610B10
00016B5650
136201B840
0B5ABB7C00
029BBB8100
ENDCHAR
STARTCHAR t
ENCODING 116
SWIDTH 349 0
DWIDTH 8 0
BBX 9 10 0 0
BITMAP
9BBBBBBB20
0000000000
9BBDCCBB20
000B650000
000B650000
000B650000
000B650000
000B650000
000B650000
000B650000
ENDCHAR
STARTCHAR u
ENCODING 117
SWIDTH 400 0
DWIDTH 10 0
BBX 9 10 0 0
BITMAP
1A7400A2A0
1A7400A2A0
1A7400A2A0
1A7400A2A0
1A7400A2A0
1A7400A2A0
0B6400A390
0B4902B660
04B8BB7B10
004BCC9100
ENDCHAR
STARTCHAR v
ENCODING 118
SWIDTH 394 0
DWIDTH 9 0
BBX 10 10 0 0
BITMAP
93B00066A1
489300A2B0
0B4801A560
092B056A10
04792A2B00
00B48B5600
00A2E6A200
005793B000
001B5B7000
000A2E2000
ENDCHAR
STARTCHAR w
ENCODING 119
SWIDTH 521 0
DWIDTH 13 0
BBX 13 10 0 0
BITMAP
A2B00B39047920
65B01A68084B00
297457AB0B2900
0B4793BA2B6600
092AB3B6979200
056AA7E3F3B000
02A76AA3D29000
00B38B57A75000
0092D81A6E1000
0056B40B3D0000
ENDCHAR
STARTCHAR x
ENCODING 120
SWIDTH 369 0
DWIDTH 9 0
BBX 9 10 0 0
BITMAP
4966075A20
0A3B2B4900
03A5D4B100
0094B68000
002B4E1000
004E5A2000
00B3D3A000
0678A69300
1C2B0C2B00
75A3058750
ENDCHAR
STARTCHAR y
ENCODING 121
SWIDTH 422 0
DWIDTH 10 0
BBX 10 10 0 0
BITMAP
7776004959
0B2C10C2C1
03A4A86950
00859B3A00
001C2CC200
0003234000
0001983000
0001983000
0001983000
0001983000
ENDCHAR
STARTCHAR z
ENCODING 122
SWIDTH 409 0
DWIDTH 10 0
BBX 9 10 0 0
BITMAP
1BBBBBBBA0
0000000000
07777AA9A0
00002C2C20
0001C2B400
000B395000
00A5780000
0875A00000
1DBDCBBBA0
1BBBBBBBA0
ENDCHAR
STARTCHAR braceleft
ENCODING 123
SWIDTH 443 0
DWIDTH 11 0
BBX 9 11 1 -1
BITMAP
0009369B50
000B479B50
000B470000
000B470000
9B5B470000
000B470000
9B5B470000
000B470000
000B479B50
000B470000
0009369B50
ENDCHAR
STARTCHAR bar
ENCODING 124
SWIDTH 196 0
DWIDTH 5 0
BBX 3 11 1 -1
BITMAP
B380
B380
B380
B380
B380
B380
B380
B380
B380
B380
B380
ENDCHAR
STARTCHAR braceright
ENCODING 125
SWIDTH 506 0
DWIDTH 12 0
BBX 9 11 2 -1
BITMAP
3BB4590000
3BB56B0000
00056B0000
00056B0000
00056B4BB0
00056B0000
00056B4BB0
00056B0000
3BB56B0000
00056B0000
3BB4590000
ENDCHAR
STARTCHAR asciitilde
ENCODING 126
SWIDTH 450 0
DWIDTH 11 0
BBX 9 4 1 3
BITMAP
7BBA610160
60017BBB50
7BBB610160
60017BBB50
ENDCHAR
STARTCHAR uni00A0
ENCODING 160
SWIDTH 280 0
DWIDTH 7 0
BBX 1 1 0 0
BITMAP
00
ENDCHAR
STARTCHAR exclamdown
ENCODING 161
SWIDTH 196 0
DWIDTH 5 0
BBX 3 10 1 -3
BITMAP
B380
B380
0000
B380
B380
B380
B380
B380
B380
B380
ENDCHAR
STARTCHAR cent
ENCODING 162
SWIDTH 305 0
DWIDTH 7 0
BBX 7 12 0 -1
BITMAP
00278100
00389200
018CB700
1C500780
765BB550
B4B10400
B7500000
78B10400
1CABB860
018CCA30
00278100
00389200
ENDCHAR
STARTCHAR sterling
ENCODING 163
SWIDTH 408 0
DWIDTH 10 0
BBX 10 10 0 0
BITMAP
08BBBA3000
668BB5B200
2120121000
ABBBBBA000
0000000000
ABBBBBA000
0739000000
0000000000
ABBBBBBBB1
ABBBBBBBB1
ENDCHAR
STARTCHAR currency
ENCODING 164
SWIDTH 401 0
DWIDTH 10 0
BBX 9 9 0 0
BITMAP
0030000300
02A2007520
1B17BB3590
0168B8C100
0092B69200
006802C000
1A17BB3560
1382007340
0060001500
ENDCHAR
STARTCHAR yen
ENCODING 165
SWIDTH 423 0
DWIDTH 10 0
BBX 10 10 0 0
BITMAP
6776004A49
0B2C10C2C1
03B3A76850
00869C3A00
000C2CC200
0003334000
08B2A74AA0
0001A74000
08B2A74AA0
0001A74000
ENDCHAR
STARTCHAR brokenbar
ENCODING 166
SWIDTH 196 0
DWIDTH 5 0
BBX 3 10 1 0
BITMAP
B380
B380
B380
B380
0000
0000
B380
B380
B380
B380
ENDCHAR
STARTCHAR section
ENCODING 167
SWIDTH 322 0
DWIDTH 8 0
BBX 7 11 0 -1
BITMAP
0269A540
07B20320
1A2AA500
09A51670
3877B6A0
379836B0
0A337A40
018B72A0
013068A0
1B9BC990
03ABB700
ENDCHAR
STARTCHAR dieresis
ENCODING 168
SWIDTH 287 0
DWIDTH 7 0
BBX 5 2 1 12
BITMAP
770960
990B70
ENDCHAR
STARTCHAR copyright
ENCODING 169
SWIDTH 493 0
DWIDTH 12 0
BBX 12 11 0 0
BITMAP
0004ABB92000
00892003B600
068000000A30
0C006BB602A0
2903A10600B0
4706500000A1
2903A00500B0
0C006BB502A0
069000000B30
008A2003B600
0004ABB93000
ENDCHAR
STARTCHAR ordfeminine
ENCODING 170
SWIDTH 331 0
DWIDTH 8 0
BBX 6 4 1 6
BITMAP
077860
099990
38BC73
889A78
ENDCHAR
STARTCHAR guillemotleft
ENCODING 171
SWIDTH 298 0
DWIDTH 7 0
BBX 7 6 0 2
BITMAP
00220310
06B17A00
04334420
17436410
06B17A00
00210300
ENDCHAR
STARTCHAR logicalnot
ENCODING 172
SWIDTH 420 0
DWIDTH 10 0
BBX 10 5 0 1
BITMAP
1BBBBBBBB1
1BBBBBBBB1
0000000000
00000047A1
00000047A1
ENDCHAR
STARTCHAR uni00AD
ENCODING 173
SWIDTH 326 0
DWIDTH 8 0
BBX 6 3 1 4
BITMAP
9BBBB7
000000
9BBBB7
ENDCHAR
STARTCHAR registered
ENCODING 174
SWIDTH 493 0
DWIDTH 12 0
BBX 12 11 0 0
BITMAP
0004ABB92000
00892003B600
068000000A30
0C00000002A0
2900BABA00B0
4700BAC900A1
2900B06600B0
0C00B01B02A0
069000000B30
008A2003B600
0004ABB93000
ENDCHAR
STARTCHAR macron
ENCODING 175
SWIDTH 331 0
DWIDTH 8 0
BBX 6 1 1 12
BITMAP
9BBBB8
ENDCHAR
STARTCHAR degree
ENCODING 176
SWIDTH 298 0
DWIDTH 7 0
BBX 5 5 1 5
BITMAP
19BA20
96B6A0
A567A0
86B6A0
19BA10
ENDCHAR
STARTCHAR plusminus
ENCODING 177
SWIDTH 418 0
DWIDTH 10 0
BBX 10 10 0 0
BITMAP
0002983000
0002983000
08B2983B90
0002983000
08B2983B90
0002983000
0002983000
0000000000
1BBBBBBBB1
1BBBBBBBB1
ENDCHAR
STARTCHAR uni00B2
ENCODING 178
SWIDTH 233 0
DWIDTH 6 0
BBX 4 5 1 5
BITMAP
4892
7675
3761
6772
6772
ENDCHAR
STARTCHAR uni00B3
ENCODING 179
SWIDTH 228 0
DWIDTH 5 0
BBX 4 5 1 5
BITMAP
4780
6763
0391
6773
4881
ENDCHAR
STARTCHAR acute
ENCODING 180
SWIDTH 195 0
DWIDTH 5 0
BBX 3 3 1 11
BITMAP
0430
1C00
8500
ENDCHAR
STARTCHAR uni00B5
ENCODING 181
SWIDTH 506 0
DWIDTH 12 0
BBX 11 13 1 -3
BITMAP
B380064B0000
B380064B0000
B380064B0000
B380064B0000
B380064B0000
B380064B0000
B380074B0000
B3810B490000
B38BB7C29800
B38BCB36BB40
B38000000000
B38000000000
B37000000000
ENDCHAR
STARTCHAR paragraph
ENCODING 182
SWIDTH 435 0
DWIDTH 10 0
BBX 10 10 0 0
BITMAP
04BBBBBBB3
1B10000000
566CBBBBB3
56B00B7474
1B8C3B7474
02AB3B7474
00000B7474
00000B7474
00000B7474
00000B7474
ENDCHAR
STARTCHAR periodcentered
ENCODING 183
SWIDTH 176 0
DWIDTH 4 0
BBX 4 2 0 4
BITMAP
1A74
1A74
ENDCHAR
STARTCHAR cedilla
ENCODING 184
SWIDTH 261 0
DWIDTH 6 0
BBX 4 4 1 -4
BITMAP
0830
3EB8
110C
5BC6
ENDCHAR
STARTCHAR uni00B9
ENCODING 185
SWIDTH 218 0
DWIDTH 5 0
BBX 3 5 1 5
BITMAP
6790
6790
0590
0590
0590
ENDCHAR
STARTCHAR ordmasculine
ENCODING 186
SWIDTH 335 0
DWIDTH 8 0
BBX 6 6 1 5
BITMAP
05AA50
597795
A7117A
A7117A
677777
07AA80
ENDCHAR
STARTCHAR guillemotright
ENCODING 187
SWIDTH 298 0
DWIDTH 7 0
BBX 6 6 1 2
BITMAP
401300
991A70
642440
454462
890A70
300300
ENDCHAR
STARTCHAR onequarter
ENCODING 188
SWIDTH 429 0
DWIDTH 10 0
BBX 10 10 0 0
BITMAP
2677001880
2677007720
0077018800
0077078200
0077287000
0000881880
0003774840
0008815533
0037606677
0088006677
ENDCHAR
STARTCHAR onehalf
ENCODING 189
SWIDTH 437 0
DWIDTH 10 0
BBX 10 10 0 0
BITMAP
2677003760
2677008800
0077057500
0077088000
0055674782
0001885778
0007821297
0028701872
0088103775
0156003775
ENDCHAR
STARTCHAR threequarters
ENCODING 190
SWIDTH 409 0
DWIDTH 10 0
BBX 10 10 0 0
BITMAP
0783002320
2557008810
0075047500
2687088000
0783673000
0001884840
0007828800
0028715541
0088137691
0475037691
ENDCHAR
STARTCHAR questiondown
ENCODING 191
SWIDTH 346 0
DWIDTH 8 0
BBX 6 10 1 -2
BITMAP
00B640
002110
00B650
01A740
1B3B10
84A400
A39123
A1BC3B
590059
05BB80
ENDCHAR
STARTCHAR Agrave
ENCODING 192
SWIDTH 798 0
DWIDTH 19 0
BBX 19 26 0 0
BITMAP
00000487600000000000
000000A3B10000000000
0000002A480000000000
000000084A2000000000
00000001B2A000000000
00000000000000000000
0000000A2B5600000000
0000001A66A430000000
00000065B2A380000000
000000B2A661B0000000
000002975B2884000000
0000074B2A0B39000000
00000B2A75584B000000
00002974B0C397500000
000084B29084B2A00000
0000B397403974B10000
0003884B000B2A650000
00083B3900075B2A0000
000B38830002A65A1000
004893B1BBB4B2A66000
0093B488BBBA66A2B000
00B4793000001B56A200
04792B3BBBBB5A2B5700
0A2B47000000056A2B00
1B579200000001B57920
56A2B00000000092B470
ENDCHAR
STARTCHAR Aacute
ENCODING 193
SWIDTH 798 0
DWIDTH 19 0
BBX 19 26 0 0
BITMAP
00000000000B2B000000
00000000006694000000
0000000001B3A0000000
00000000094A20000000
000000003A5800000000
00000000000000000000
0000000A2B5600000000
0000001A66A430000000
00000065B2A380000000
000000B2A661B0000000
000002975B2884000000
0000074B2A0B39000000
00000B2A75584B000000
00002974B0C397500000
000084B29084B2A00000
0000B397403974B10000
0003884B000B2A650000
00083B3900075B2A0000
000B38830002A65A1000
004893B1BBB4B2A66000
0093B488BBBA66A2B000
00B4793000001B56A200
04792B3BBBBB5A2B5700
0A2B47000000056A2B00
1B579200000001B57920
56A2B00000000092B470
ENDCHAR
STARTCHAR Acircumflex
ENCODING 194
SWIDTH 798 0
DWIDTH 19 0
BBX 19 26 0 0
BITMAP
00000008686000000000
0000004A4A1B00000000
000001C2C27680000000
00000A3B30A4A4000000
00007777001B2C100000
00000000000000000000
0000000A2B5600000000
0000001A66A430000000
00000065B2A380000000
000000B2A661B0000000
000002975B2884000000
0000074B2A0B39000000
00000B2A75584B000000
00002974B0C397500000
000084B29084B2A00000
0000B397403974B10000
0003884B000B2A650000
00083B3900075B2A0000
000B38830002A65A1000
004893B1BBB4B2A66000
0093B488BBBA66A2B000
00B4793000001B56A200
04792B3BBBBB5A2B5700
0A2B47000000056A2B00
1B579200000001B57920
56A2B00000000092B470
ENDCHAR
STARTCHAR Atilde
ENCODING 195
SWIDTH 798 0
DWIDTH 19 0
BBX 19 24 0 0
BITMAP
0000019BA20007100000
00000A403C402C000000
00000800019BA3000000
00000000000000000000
0000000A2B5600000000
0000001A66A430000000
00000065B2A380000000
000000B2A661B0000000
000002975B2884000000
0000074B2A0B39000000
00000B2A75584B000000
00002974B0C397500000
000084B29084B2A00000
0000B397403974B10000
0003884B000B2A650000
00083B3900075B2A0000
000B38830002A65A1000
004893B1BBB4B2A66000
0093B488BBBA66A2B000
00B4793000001B56A200
04792B3BBBBB5A2B5700
0A2B47000000056A2B00
1B579200000001B57920
56A2B00000000092B470
ENDCHAR
STARTCHAR Adieresis
ENCODING 196
SWIDTH 798 0
DWIDTH 19 0
BBX 19 26 0 0
BITMAP
00002AB80006BB300000
0000A306704901B00000
0000B001A07400920000
0000A306704901B00000
00002AB80006BB300000
00000000000000000000
0000000A2B5600000000
0000001A66A430000000
00000065B2A380000000
000000B2A661B0000000
000002975B2884000000
0000074B2A0B39000000
00000B2A75584B000000
00002974B0C397500000
000084B29084B2A00000
0000B397403974B10000
0003884B000B2A650000
00083B3900075B2A0000
000B38830002A65A1000
004893B1BBB4B2A66000
0093B488BBBA66A2B000
00B4793000001B56A200
04792B3BBBBB5A2B5700
0A2B47000000056A2B00
1B579200000001B57920
56A2B00000000092B470
ENDCHAR
STARTCHAR Aring
ENCODING 197
SWIDTH 798 0
DWIDTH 19 0
BBX 19 26 0 0
BITMAP
000000019BA200000000
0000000A402B00000000
0000000C000A10000000
0000000A402B00000000
000000019BA200000000
00000000000000000000
0000000A2B5600000000
0000001A66A430000000
00000065B2A380000000
000000B2A661B0000000
000002975B2884000000
0000074B2A0B39000000
00000B2A75584B000000
00002974B0C397500000
000084B29084B2A00000
0000B397403974B10000
0003884B000B2A650000
00083B3900075B2A0000
000B38830002A65A1000
004893B1BBB4B2A66000
0093B488BBBA66A2B000
00B4793000001B56A200
04792B3BBBBB5A2B5700
0A2B47000000056A2B00
1B579200000001B57920
56A2B00000000092B470
ENDCHAR
STARTCHAR AE
ENCODING 198
SWIDTH 1078 0
DWIDTH 26 0
BBX 26 20 0 0
BITMAP
000000000092A64ABBBBBBBBB2
000000000083B5600000000000
000000000665B388BBBBBBBBB2
000000003847A2900000000000
00000000A13892B5BBBBBBBBB2
00000003831A74B00000000000
0000000A1B1B56B00000000000
00000038481B47A10000000000
000000A1B46B2983BBBBBBB900
000004848A292B650000000000
00000B1B49074B569BBBBBB900
00004857A2065B386BBBBBB900
0000B1B490047A2A0000000000
0004857A2002983B0000000000
000B2B494BB1A74B0000000000
004866A20000B56B0000000000
00B2B392BBB3B3892BBBBBBBB2
04866A2BBBB5A2983000000000
0B2B3900000092B65ABBBBBBB2
4875A200000074B478BBBBBBB2
ENDCHAR
STARTCHAR Ccedilla
ENCODING 199
SWIDTH 776 0
DWIDTH 19 0
BBX 18 26 0 -6
BITMAP
00000027BBBBBA5000
000019A89BBBA77C60
0002B6B8300027B499
001B5C228BBBA51B41
00A4C17A400028B240
048948700000003400
0A3B49000000000000
0B56A2000000000000
2993B0000000000000
47A2A0000000000000
47A2A0000000000000
2993B0000000000000
0B56A2000000000000
0A3B49000000000000
048948700000002300
00A4C18A400027B230
001C5C228BBBA51A51
0002C6A8300027B498
000019A89BBBA78C60
00000027BDCBBA5000
000000001C00000000
000000008600000000
00000001FBB6000000
00000002400A300000
00000004000A200000
00000005ABB5000000
ENDCHAR
STARTCHAR Egrave
ENCODING 200
SWIDTH 677 0
DWIDTH 16 0
BBX 15 26 1 0
BITMAP
000003A580000000
00000094B2000000
0000001B3A000000
0000000769400000
00000000B2B00000
0000000000000000
B3892BBBBBBBBB60
B389100000000000
B3892BBBBBBBBB60
B389100000000000
B3892BBBBBBBBB60
B389100000000000
B389100000000000
B389100000000000
B3892BBBBBBBB200
B389100000000000
B3892BBBBBBBB200
B3892BBBBBBBB200
B389100000000000
B389100000000000
B389100000000000
B389100000000000
B3892BBBBBBBBB60
B389100000000000
B3892BBBBBBBBB60
B3892BBBBBBBBB60
ENDCHAR
STARTCHAR Eacute
ENCODING 201
SWIDTH 677 0
DWIDTH 16 0
BBX 15 26 1 0
BITMAP
00000001B2A00000
000000084A200000
0000002A48000000
000000A3B1000000
0000048660000000
0000000000000000
B3892BBBBBBBBB60
B389100000000000
B3892BBBBBBBBB60
B389100000000000
B3892BBBBBBBBB60
B389100000000000
B389100000000000
B389100000000000
B3892BBBBBBBB200
B389100000000000
B3892BBBBBBBB200
B3892BBBBBBBB200
B389100000000000
B389100000000000
B389100000000000
B389100000000000
B3892BBBBBBBBB60
B389100000000000
B3892BBBBBBBBB60
B3892BBBBBBBBB60
ENDCHAR
STARTCHAR Ecircumflex
ENCODING 202
SWIDTH 677 0
DWIDTH 16 0
BBX 15 26 1 0
BITMAP
000000B3B3000000
0000086864800000
00004A4A34940000
0001C2C11C2B1000
000A3A3003A3A000
0000000000000000
B3892BBBBBBBBB60
B389100000000000
B3892BBBBBBBBB60
B389100000000000
B3892BBBBBBBBB60
B389100000000000
B389100000000000
B389100000000000
B3892BBBBBBBB200
B389100000000000
B3892BBBBBBBB200
B3892BBBBBBBB200
B389100000000000
B389100000000000
B389100000000000
B389100000000000
B3892BBBBBBBBB60
B389100000000000
B3892BBBBBBBBB60
B3892BBBBBBBBB60
ENDCHAR
STARTCHAR Edieresis
ENCODING 203
SWIDTH 677 0
DWIDTH 16 0
BBX 15 26 1 0
BITMAP
0003BB50008BA100
001B10A307503A00
003800560B000B00
001B10A308503A00
0004BB60009BA100
0000000000000000
B3892BBBBBBBBB60
B389100000000000
B3892BBBBBBBBB60
B389100000000000
B3892BBBBBBBBB60
B389100000000000
B389100000000000
B389100000000000
B3892BBBBBBBB200
B389100000000000
B3892BBBBBBBB200
B3892BBBBBBBB200
B389100000000000
B389100000000000
B389100000000000
B389100000000000
B3892BBBBBBBBB60
B389100000000000
B3892BBBBBBBBB60
B3892BBBBBBBBB60
ENDCHAR
STARTCHAR Igrave
ENCODING 204
SWIDTH 262 0
DWIDTH 6 0
BBX 8 26 -2 0
BITMAP
1B3A0000
06784000
00B2B000
00496700
000A3B10
00000000
000B3891
000B3891
000B3891
000B3891
000B3891
000B3891
000B3891
000B3891
000B3891
000B3891
000B3891
000B3891
000B3891
000B3891
000B3891
000B3891
000B3891
000B3891
000B3891
000B3891
ENDCHAR
STARTCHAR Iacute
ENCODING 205
SWIDTH 262 0
DWIDTH 6 0
BBX 7 26 1 0
BITMAP
00094A20
003A5800
00B2B100
05876000
0C2B0000
00000000
B3891000
B3891000
B3891000
B3891000
B3891000
B3891000
B3891000
B3891000
B3891000
B3891000
B3891000
B3891000
B3891000
B3891000
B3891000
B3891000
B3891000
B3891000
B3891000
B3891000
ENDCHAR
STARTCHAR Icircumflex
ENCODING 206
SWIDTH 262 0
DWIDTH 6 0
BBX 11 26 -3 0
BITMAP
0001C2C10000
000A3B375000
00777762B200
03B3B02B3B00
1B2C10058680
000000000000
0000B3891000
0000B3891000
0000B3891000
0000B3891000
0000B3891000
0000B3891000
0000B3891000
0000B3891000
0000B3891000
0000B3891000
0000B3891000
0000B3891000
0000B3891000
0000B3891000
0000B3891000
0000B3891000
0000B3891000
0000B3891000
0000B3891000
0000B3891000
ENDCHAR
STARTCHAR Idieresis
ENCODING 207
SWIDTH 262 0
DWIDTH 6 0
BBX 12 26 -3 0
BITMAP
05BB4001AB80
3A01B10A3067
6500830B000A
3A01B10A3067
05BB4001AB80
000000000000
0000B3891000
0000B3891000
0000B3891000
0000B3891000
0000B3891000
0000B3891000
0000B3891000
0000B3891000
0000B3891000
0000B3891000
0000B3891000
0000B3891000
0000B3891000
0000B3891000
0000B3891000
0000B3891000
0000B3891000
0000B3891000
0000B3891000
0000B3891000
ENDCHAR
STARTCHAR Eth
ENCODING 208
SWIDTH 856 0
DWIDTH 21 0
BBX 20 20 0 0
BITMAP
0092B74ABBBBA5000000
0092B740000027C50000
0092B74ABBCB72199000
0092B74000015B807800
0092B74ABBBA616B1940
0092B74000016B44A1B0
0092B740000001B48583
000000000000001C2B48
9BBBBBBBB90000075B1A
0000000000000003893B
9BBBBBBBB9000002983B
9BBBBBBBB9000004893A
00000000000000075B48
0092B7400000001C2B83
0092B740000001B486B0
0092B74000016C44A940
0092B74ABBBA616B7800
0092B74000015B999000
0092B74ABBCB99C50000
0092B74ABBBBA5000000
ENDCHAR
STARTCHAR Ntilde
ENCODING 209
SWIDTH 796 0
DWIDTH 19 0
BBX 17 24 1 0
BITMAP
00001ABA2000710000
0000A303C402B00000
0000800019BA200000
000000000000000000
B389100000000B65B0
B389220000000B65B0
B3892B0000000B65B0
B389167000000B65B0
B38924A300000B65B0
B3892C2B00000B65B0
B389159680000B65B0
B3892594A3000B65B0
B3892B2C2B000B65B0
B38913A495800B65B0
B389108594A40B65B0
B389100B2C2C1B65B0
B3891003A4A52B65B0
B389100086850B65B0
B38910000B2B1B65B0
B389100003B32B65B0
B389100000760B65B0
B3891000000B1B65B0
B389100000022B65B0
B389100000000B65B0
ENDCHAR
STARTCHAR Ograve
ENCODING 210
SWIDTH 894 0
DWIDTH 21 0
BBX 21 26 0 0
BITMAP
0000002A48000000000000
000000084A200000000000
00000001B3A00000000000
0000000067840000000000
000000000B2B0000000000
0000000000000000000000
00000027BBBBB950000000
000019A89BBBA88B400000
0002B6B8300015B7970000
001B5C228BBBA508986000
00A4C17A400027B277A300
048948700000002C2B3A00
0A3B490000000003A48920
0B56A20000000000A2B560
2993B0000000000056B290
47A2A000000000003892A0
47A2A000000000003892A0
2993B0000000000056B290
0B56A20000000000A2B560
0A3B490000000003A48A20
048948700000002C2B3A00
00A4C18A400027B277A300
001C5C228BBBA508986000
0002C6A8300015B7970000
000019A89BBBA88B400000
00000027BBBBB950000000
ENDCHAR
STARTCHAR Oacute
ENCODING 211
SWIDTH 894 0
DWIDTH 21 0
BBX 21 26 0 0
BITMAP
0000000000048760000000
00000000000B2B00000000
0000000000769400000000
0000000001B3A000000000
00000000093B2000000000
0000000000000000000000
00000027BBBBB950000000
000019A89BBBA88B400000
0002B6B8300015B7970000
001B5C228BBBA508986000
00A4C17A400027B277A300
048948700000002C2B3A00
0A3B490000000003A48920
0B56A20000000000A2B560
2993B0000000000056B290
47A2A000000000003892A0
47A2A000000000003892A0
2993B0000000000056B290
0B56A20000000000A2B560
0A3B490000000003A48A20
048948700000002C2B3A00
00A4C18A400027B277A300
001C5C228BBBA508986000
0002C6A8300015B7970000
000019A89BBBA88B400000
00000027BBBBB950000000
ENDCHAR
STARTCHAR Ocircumflex
ENCODING 212
SWIDTH 894 0
DWIDTH 21 0
BBX 21 26 0 0
BITMAP
0000000067670000000000
00000003B3B0B100000000
0000000B2C284900000000
0000009595086860000000
000005959000B3B2000000
0000000000000000000000
00000027BBBBB950000000
000019A89BBBA88B400000
0002B6B8300015B7970000
001B5C228BBBA508986000
00A4C17A400027B277A300
048948700000002C2B3A00
0A3B490000000003A48920
0B56A20000000000A2B560
2993B0000000000056B290
47A2A000000000003892A0
47A2A000000000003892A0
2993B0000000000056B290
0B56A20000000000A2B560
0A3B490000000003A48A20
048948700000002C2B3A00
00A4C18A400027B277A300
001C5C228BBBA508986000
0002C6A8300015B7970000
000019A89BBBA88B400000
00000027BBBBB950000000
ENDCHAR
STARTCHAR Otilde
ENCODING 213
SWIDTH 894 0
DWIDTH 21 0
BBX 21 24 0 0
BITMAP
00000019BB300052000000
0000008602B601C1000000
000000800008BB40000000
0000000000000000000000
00000027BBBBB950000000
000019A89BBBA88B400000
0002B6B8300015B7970000
001B5C228BBBA508986000
00A4C17A400027B277A300
048948700000002C2B3A00
0A3B490000000003A48920
0B56A20000000000A2B560
2993B0000000000056B290
47A2A000000000003892A0
47A2A000000000003892A0
2993B0000000000056B290
0B56A20000000000A2B560
0A3B490000000003A48A20
048948700000002C2B3A00
00A4C18A400027B277A300
001C5C228BBBA508986000
0002C6A8300015B7970000
000019A89BBBA88B400000
00000027BBBBB950000000
ENDCHAR
STARTCHAR Odieresis
ENCODING 214
SWIDTH 894 0
DWIDTH 21 0
BBX 21 26 0 0
BITMAP
0000019B91005BB4000000
000009404902A01B100000
00000B000B056007400000
000009404902A01B100000
0000019B91005BB4000000
0000000000000000000000
00000027BBBBB950000000
000019A89BBBA88B400000
0002B6B8300015B7970000
001B5C228BBBA508986000
00A4C17A400027B277A300
048948700000002C2B3A00
0A3B490000000003A48920
0B56A20000000000A2B560
2993B0000000000056B290
47A2A000000000003892A0
47A2A000000000003892A0
2993B0000000000056B290
0B56A20000000000A2B560
0A3B490000000003A48A20
048948700000002C2B3A00
00A4C18A400027B277A300
001C5C228BBBA508986000
0002C6A8300015B7970000
000019A89BBBA88B400000
00000027BBBBB950000000
ENDCHAR
STARTCHAR multiply
ENCODING 215
SWIDTH 370 0
DWIDTH 9 0
BBX 7 7 1 1
BITMAP
09405500
A2559360
25593B10
0593B100
593B1840
43B19260
05102700
ENDCHAR
STARTCHAR Oslash
ENCODING 216
SWIDTH 894 0
DWIDTH 21 0
BBX 21 20 0 0
BITMAP
00000027BBBBA831920000
000019A89BBCA50A4C3300
0002B6B830003368A4B200
001C5B228BBC72B6876000
00A5B17B40001B4B3B1200
04893870000076B3B22A00
0A3B49000003A768636A20
0B65A200001B4A3A22B560
2993B0001095C2B256B290
47A2A0049499485038A2A0
47A2A01B2B593A003892A0
2893B094A4B1010056B290
0B5744967A300000A2B560
0A2A1B3B67000003A48920
058194B4B000002C2B4A00
0044986B200027B277A300
001B4A862BBBA507987000
0095B5A0500015B8970000
00585C129BBBA98C400000
000034179ABBB950000000
ENDCHAR
STARTCHAR Ugrave
ENCODING 217
SWIDTH 702 0
DWIDTH 17 0
BBX 15 26 1 0
BITMAP
000B2C1000000000
0003A58000000000
000094B200000000
00001B3A00000000
0000066940000000
0000000000000000
B38910000047A2A0
B38910000047A2A0
B38910000047A2A0
B38910000047A2A0
B38910000047A2A0
B38910000047A2A0
B38910000047A2A0
B38910000047A2A0
B38910000047A2A0
B38910000047A2A0
B38910000047A2A0
B38910000047A2A0
B38910000047A290
A38830000056B380
83A4800000A2B560
48A1A61018838A10
0B5A17BBB61B5900
02B7B40005B6C100
003C89BBB98B2000
00016BBBBB500000
ENDCHAR
STARTCHAR Uacute
ENCODING 218
SWIDTH 702 0
DWIDTH 17 0
BBX 15 26 1 0
BITMAP
0000000039570000
00000000B2B00000
0000000678500000
0000001B2A000000
00000085A2000000
0000000000000000
B38910000047A2A0
B38910000047A2A0
B38910000047A2A0
B38910000047A2A0
B38910000047A2A0
B38910000047A2A0
B38910000047A2A0
B38910000047A2A0
B38910000047A2A0
B38910000047A2A0
B38910000047A2A0
B38910000047A2A0
B38910000047A290
A38830000056B380
83A4800000A2B560
48A1A61018838A10
0B5A17BBB61B5900
02B7B40005B6C100
003C89BBB98B2000
00016BBBBB500000
ENDCHAR
STARTCHAR Ucircumflex
ENCODING 219
SWIDTH 702 0
DWIDTH 17 0
BBX 15 26 1 0
BITMAP
00000A3A30000000
0000777729000000
0003B3B258500000
001B2C20B2B20000
009595002B3B0000
0000000000000000
B38910000047A2A0
B38910000047A2A0
B38910000047A2A0
B38910000047A2A0
B38910000047A2A0
B38910000047A2A0
B38910000047A2A0
B38910000047A2A0
B38910000047A2A0
B38910000047A2A0
B38910000047A2A0
B38910000047A2A0
B38910000047A290
A38830000056B380
83A4800000A2B560
48A1A61018838A10
0B5A17BBB61B5900
02B7B40005B6C100
003C89BBB98B2000
00016BBBBB500000
ENDCHAR
STARTCHAR Udieresis
ENCODING 220
SWIDTH 702 0
DWIDTH 17 0
BBX 15 26 1 0
BITMAP
003BB60008BA2000
00B109406702B000
019003709200B000
00B109406702B000
003BB70008BA2000
0000000000000000
B38910000047A2A0
B38910000047A2A0
B38910000047A2A0
B38910000047A2A0
B38910000047A2A0
B38910000047A2A0
B38910000047A2A0
B38910000047A2A0
B38910000047A2A0
B38910000047A2A0
B38910000047A2A0
B38910000047A2A0
B38910000047A290
A38830000056B380
83A4800000A2B560
48A1A61018838A10
0B5A17BBB61B5900
02B7B40005B6C100
003C89BBB98B2000
00016BBBBB500000
ENDCHAR
STARTCHAR Yacute
ENCODING 221
SWIDTH 769 0
DWIDTH 18 0
BBX 19 26 0 0
BITMAP
000000000094B2000000
0000000003A580000000
000000000B2B10000000
00000000587500000000
00000001C2B000000000
00000000000000000000
6785940000000B2B2B10
0B2C2B00000067769400
03A496700001B3B3A000
0085A3B2000A3B2B1000
001C2B3B004967760000
0004967761C2B3B00000
0000A3B2C24A4B200000
00001B3B4A2967000000
000006775942C0000000
000000B2B2C230000000
00000025344400000000
00000005144100000000
0000000B298300000000
0000000B298300000000
0000000B298300000000
0000000B298300000000
0000000B298300000000
0000000B298300000000
0000000B298300000000
0000000B298300000000
ENDCHAR
STARTCHAR Thorn
ENCODING 222
SWIDTH 743 0
DWIDTH 18 0
BBX 17 20 1 0
BITMAP
B38910000000000000
B38910000000000000
B38910000000000000
B38910000000000000
B3892BBBBBBB820000
B389100000004B4000
B3892BBBBBBB61B300
B3892BBBBBBB9A2A00
B38910000002B75A10
B38910000000A39830
B38910000002B39830
B3892BBBBBBA275A10
B389100000007A2A00
B3892BBBBBBB61B300
B389100000004B5000
B3892BBBBBBB820000
B38910000000000000
B38910000000000000
B38910000000000000
B38910000000000000
ENDCHAR
STARTCHAR germandbls
ENCODING 223
SWIDTH 424 0
DWIDTH 10 0
BBX 10 10 0 0
BITMAP
019BBBB800
0A40000680
0B2BBBB1B0
1A750065B0
1A742BDBA0
1A742BC7B1
1A74000B65
1A74000B55
1A747BB5B2
1A747BBB40
ENDCHAR
STARTCHAR agrave
ENCODING 224
SWIDTH 414 0
DWIDTH 10 0
BBX 10 14 0 0
BITMAP
0004200000
0002A00000
0000840000
0000000000
00065B5000
000B2BA000
002A77A100
0074BB5600
00B3892B00
0398237A20
084CBBC470
0B380093B0
488CBBC793
93B0000B48
ENDCHAR
STARTCHAR aacute
ENCODING 225
SWIDTH 414 0
DWIDTH 10 0
BBX 10 14 0 0
BITMAP
0000006100
000003A000
00000B2000
0000000000
00065B5000
000B2BA000
002A77A100
0074BB5600
00B3892B00
0398237A20
084CBBC470
0B380093B0
488CBBC793
93B0000B48
ENDCHAR
STARTCHAR acircumflex
ENCODING 226
SWIDTH 414 0
DWIDTH 10 0
BBX 10 14 0 0
BITMAP
0000610000
0005842000
002B02B100
0000000000
00065B5000
000B2BA000
002A77A100
0074BB5600
00B3892B00
0398237A20
084CBBC470
0B380093B0
488CBBC793
93B0000B48
ENDCHAR
STARTCHAR atilde
ENCODING 227
SWIDTH 414 0
DWIDTH 10 0
BBX 10 13 0 0
BITMAP
003BA21800
00722AB400
0000000000
00065B5000
000B2BA000
002A77A100
0074BB5600
00B3892B00
0398237A20
084CBBC470
0B380093B0
488CBBC793
93B0000B48
ENDCHAR
STARTCHAR adieresis
ENCODING 228
SWIDTH 414 0
DWIDTH 10 0
BBX 10 14 0 0
BITMAP
001B32C100
001E42E200
0000000000
0000000000
00065B5000
000B2BA000
002A77A100
0074BB5600
00B3892B00
0398237A20
084CBBC470
0B380093B0
488CBBC793
93B0000B48
ENDCHAR
STARTCHAR aring
ENCODING 229
SWIDTH 414 0
DWIDTH 10 0
BBX 10 14 0 0
BITMAP
0000991000
0004655000
0000991000
0000000000
00065B5000
000B2BA000
002A77A100
0074BB5600
00B3892B00
0398237A20
084CBBC470
0B380093B0
488CBBC793
93B0000B48
ENDCHAR
STARTCHAR ae
ENCODING 230
SWIDTH 593 0
DWIDTH 14 0
BBX 14 10 0 0
BITMAP
00000B2ECBBBB9
0000578D200000
0000B2D7CBBBB9
000668C5600000
000B2DB3DBBBB0
006696B2EBBBB0
01B2D092B00000
075A6084A00000
1B3ECBD5BBBBB9
85A40047ABBBB9
ENDCHAR
STARTCHAR ccedilla
ENCODING 231
SWIDTH 446 0
DWIDTH 11 0
BBX 10 14 0 -4
BITMAP
0006BBBB71
00A79CB758
095B500670
1B66000000
38A2000000
38A2000000
1A66000000
085B500660
00A79CB758
0006BBBB71
0000290000
0000ACB300
0000204800
00019BA200
ENDCHAR
STARTCHAR egrave
ENCODING 232
SWIDTH 363 0
DWIDTH 9 0
BBX 9 14 0 0
BITMAP
0005100000
0004800000
0000A20000
0000000000
1A7CBBBB30
1A74000000
1A7CBBBB30
1A74000000
1A7CBBB600
1A7CBBB600
1A74000000
1A74000000
1A7CBBBB30
1A7CBBBB30
ENDCHAR
STARTCHAR eacute
ENCODING 233
SWIDTH 363 0
DWIDTH 9 0
BBX 9 14 0 0
BITMAP
0000006000
0000058000
00000C1000
0000000000
1A7CBBBB30
1A74000000
1A7CBBBB30
1A74000000
1A7CBBB600
1A7CBBB600
1A74000000
1A74000000
1A7CBBBB30
1A7CBBBB30
ENDCHAR
STARTCHAR ecircumflex
ENCODING 234
SWIDTH 363 0
DWIDTH 9 0
BBX 9 14 0 0
BITMAP
0000610000
0006751000
003A03B000
0000000000
1A7CBBBB30
1A74000000
1A7CBBBB30
1A74000000
1A7CBBB600
1A7CBBB600
1A74000000
1A74000000
1A7CBBBB30
1A7CBBBB30
ENDCHAR
STARTCHAR edieresis
ENCODING 235
SWIDTH 363 0
DWIDTH 9 0
BBX 9 14 0 0
BITMAP
001C22B100
002E33E100
0000000000
0000000000
1A7CBBBB30
1A74000000
1A7CBBBB30
1A74000000
1A7CBBB600
1A7CBBB600
1A74000000
1A74000000
1A7CBBBB30
1A7CBBBB30
ENDCHAR
STARTCHAR igrave
ENCODING 236
SWIDTH 176 0
DWIDTH 4 0
BBX 4 14 0 0
BITMAP
4200
3A00
0940
0000
1A74
1A74
1A74
1A74
1A74
1A74
1A74
1A74
1A74
1A74
ENDCHAR
STARTCHAR iacute
ENCODING 237
SWIDTH 176 0
DWIDTH 4 0
BBX 5 14 0 0
BITMAP
000610
003A00
00B200
000000
1A7400
1A7400
1A7400
1A7400
1A7400
1A7400
1A7400
1A7400
1A7400
1A7400
ENDCHAR
STARTCHAR icircumflex
ENCODING 238
SWIDTH 176 0
DWIDTH 4 0
BBX 6 14 -1 0
BITMAP
005100
059420
2B02B1
000000
01A740
01A740
01A740
01A740
01A740
01A740
01A740
01A740
01A740
01A740
ENDCHAR
STARTCHAR idieresis
ENCODING 239
SWIDTH 176 0
DWIDTH 4 0
BBX 6 14 -1 0
BITMAP
0B31C2
1D42E3
000000
000000
01A740
01A740
01A740
01A740
01A740
01A740
01A740
01A740
01A740
01A740
ENDCHAR
STARTCHAR eth
ENCODING 240
SWIDTH 455 0
DWIDTH 11 0
BBX 11 10 0 0
BITMAP
0B5CBBB60000
0B560006A000
0B5CBB914800
0B56003B1B00
000000056920
9BBB70028920
0B5600056B00
0B56003B5800
0B5CBB97A000
0B5CBBB60000
ENDCHAR
STARTCHAR ntilde
ENCODING 241
SWIDTH 444 0
DWIDTH 11 0
BBX 10 13 0 0
BITMAP
001AB50900
004518C700
0000000000
1A7900092B
1A7D40092B
1A75C1092B
1A7B4A092B
1A7B68592B
1A74B3BB2B
1A742B3E2B
1A7405892B
1A7400AC2B
1A74001D2B
ENDCHAR
STARTCHAR ograve
ENCODING 242
SWIDTH 494 0
DWIDTH 12 0
BBX 12 14 0 0
BITMAP
000061000000
000057000000
00000B200000
000000000000
0006BBBB5000
00A79CB88900
095B5006A760
1B66000084B0
38A2000047A1
38A2000047A1
1A66000084B0
085B5006A760
00A79CC88900
0006BBBB5000
ENDCHAR
STARTCHAR oacute
ENCODING 243
SWIDTH 494 0
DWIDTH 12 0
BBX 12 14 0 0
BITMAP
000000150000
000000930000
000003A00000
000000000000
0006BBBB5000
00A79CB88900
095B5006A760
1B66000084B0
38A2000047A1
38A2000047A1
1A66000084B0
085B5006A760
00A79CC88900
0006BBBB5000
ENDCHAR
STARTCHAR ocircumflex
ENCODING 244
SWIDTH 494 0
DWIDTH 12 0
BBX 12 14 0 0
BITMAP
000006000000
000076510000
0004A04A0000
000000000000
0006BBBB5000
00A79CB88900
095B5006A760
1B66000084B0
38A2000047A1
38A2000047A1
1A66000084B0
085B5006A760
00A79CC88900
0006BBBB5000
ENDCHAR
STARTCHAR otilde
ENCODING 245
SWIDTH 494 0
DWIDTH 12 0
BBX 12 13 0 0
BITMAP
0004CA227000
000813BB2000
000000000000
0006BBBB5000
00A79CB88900
095B5006A760
1B66000084B0
38A2000047A1
38A2000047A1
1A66000084B0
085B5006A760
00A79CC88900
0006BBBB5000
ENDCHAR
STARTCHAR odieresis
ENCODING 246
SWIDTH 494 0
DWIDTH 12 0
BBX 12 14 0 0
BITMAP
0002C13B0000
0002E24D1000
000000000000
000000000000
0006BBBB5000
00A79CB88900
095B5006A760
1B66000084B0
38A2000047A1
38A2000047A1
1A66000084B0
085B5006A760
00A79CC88900
0006BBBB5000
ENDCHAR
STARTCHAR divide
ENCODING 247
SWIDTH 418 0
DWIDTH 10 0
BBX 10 9 0 0
BITMAP
00009A0000
0000982000
00009A0000
1BBBBBBBB1
0000000000
1BBBBBBBB1
0000000000
0000AA1000
0000BB1000
ENDCHAR
STARTCHAR oslash
ENCODING 248
SWIDTH 494 0
DWIDTH 12 0
BBX 12 10 0 0
BITMAP
0006BBB90920
00A89CA07810
086B500693A0
1B66004A44C0
38A203B13792
47A22C1047A1
1A53B20084B0
0A1B3006A850
01A41BC89800
0361ABBB5000
ENDCHAR
STARTCHAR ugrave
ENCODING 249
SWIDTH 400 0
DWIDTH 10 0
BBX 9 14 0 0
BITMAP
0006000000
0007600000
0000C10000
0000000000
1A7400A2A0
1A7400A2A0
1A7400A2A0
1A7400A2A0
1A7400A2A0
1A7400A2A0
0B6400A390
0B4902B660
04B8BB7B10
004BCC9100
ENDCHAR
STARTCHAR uacute
ENCODING 250
SWIDTH 400 0
DWIDTH 10 0
BBX 9 14 0 0
BITMAP
0000024000
00000B2000
0000580000
0000000000
1A7400A2A0
1A7400A2A0
1A7400A2A0
1A7400A2A0
1A7400A2A0
1A7400A2A0
0B6400A390
0B4902B660
04B8BB7B10
004BCC9100
ENDCHAR
STARTCHAR ucircumflex
ENCODING 251
SWIDTH 400 0
DWIDTH 10 0
BBX 9 14 0 0
BITMAP
0000600000
0009460000
0068059000
0000000000
1A7400A2A0
1A7400A2A0
1A7400A2A0
1A7400A2A0
1A7400A2A0
1A7400A2A0
0B6400A390
0B4902B660
04B8BB7B10
004BCC9100
ENDCHAR
STARTCHAR udieresis
ENCODING 252
SWIDTH 400 0
DWIDTH 10 0
BBX 9 14 0 0
BITMAP
003B05A000
004D16C000
0000000000
0000000000
1A7400A2A0
1A7400A2A0
1A7400A2A0
1A7400A2A0
1A7400A2A0
1A7400A2A0
0B6400A390
0B4902B660
04B8BB7B10
004BCC9100
ENDCHAR
STARTCHAR yacute
ENCODING 253
SWIDTH 422 0
DWIDTH 10 0
BBX 10 14 0 0
BITMAP
0000006000
0000075000
00002B0000
0000000000
7776004959
0B2C10C2C1
03A4A86950
00859B3A00
001C2CC200
0003234000
0001983000
0001983000
0001983000
0001983000
ENDCHAR
STARTCHAR thorn
ENCODING 254
SWIDTH 412 0
DWIDTH 10 0
BBX 10 10 0 0
BITMAP
1A74000000
1A74000000
1A7CBBB910
1A7CBBB6B0
1A740038A1
1A740038A1
1A7CBBB6B0
1A7CBBB910
1A74000000
1A74000000
ENDCHAR
STARTCHAR ydieresis
ENCODING 255
SWIDTH 422 0
DWIDTH 10 0
BBX 10 14 0 0
BITMAP
001B32C100
001E42E200
0000000000
0000000000
7776004959
0B2C10C2C1
03A4A86950
00859B3A00
001C2CC200
0003234000
0001983000
0001983000
0001983000
0001983000
ENDCHAR
STARTCHAR Edotaccent
ENCODING 278
SWIDTH 677 0
DWIDTH 16 0
BBX 15 25 1 0
BITMAP
0000000010000000
00000009F4000000
00000007E3000000
0000000000000000
0000000000000000
B3892BBBBBBBBB60
B389100000000000
B3892BBBBBBBBB60
B389100000000000
B3892BBBBBBBBB60
B389100000000000
B389100000000000
B389100000000000
B3892BBBBBBBB200
B389100000000000
B3892BBBBBBBB200
B3892BBBBBBBB200
B389100000000000
B389100000000000
B389100000000000
B389100000000000
B3892BBBBBBBBB60
B389100000000000
B3892BBBBBBBBB60
B3892BBBBBBBBB60
ENDCHAR
STARTCHAR edotaccent
ENCODING 279
SWIDTH 363 0
DWIDTH 9 0
BBX 9 15 0 0
BITMAP
0000110000
0000DD0000
0000CC0000
0000000000
0000000000
1A7CBBBB30
1A74000000
1A7CBBBB30
1A74000000
1A7CBBB600
1A7CBBB600
1A74000000
1A74000000
1A7CBBBB30
1A7CBBBB30
ENDCHAR
STARTCHAR dotlessi
ENCODING 305
SWIDTH 176 0
DWIDTH 4 0
BBX 4 10 0 0
BITMAP
1A74
1A74
1A74
1A74
1A74
1A74
1A74
1A74
1A74
1A74
ENDCHAR
STARTCHAR OE
ENCODING 338
SWIDTH 1221 0
DWIDTH 29 0
BBX 29 20 0 0
BITMAP
00000027BBBBB400000BBBBBBBBB70
000019A41000000000000000000000
0002C4049CCBB400000BBBBBBBBB70
001C23B83000000000000000000000
00B35B238BBBB400000BBBBBBBBB70
0482B19A4000000000000000000000
0A1B2A500000000000000000000000
0B3A57000000000000000000000000
2974B10000000000000BBBBBBBB200
48A2B0000000000000000000000000
48A2A00000000000000BBBBBBBB200
29A3B00000000000000BBBBBBBB200
0B75B1000000000000000000000000
0A5A58000000000000000000000000
048B2A500000000000000000000000
00B5B19A4000000000000000000000
002C7B238BBBB400000BBBBBBBBB70
0003C7C83000000000000000000000
000019B9ACCBB400000BBBBBBBBB70
00000027BBBBB400000BBBBBBBBB70
ENDCHAR
STARTCHAR oe
ENCODING 339
SWIDTH 637 0
DWIDTH 15 0
BBX 15 10 0 0
BITMAP
0007BBB602BBBBA0
01B5000000000000
09429BB602BBBBA0
1A1B300000000000
3784000002BBBB10
37A1000002BBBB10
1A84000000000000
095B300000000000
01B7ABB602BBBBA0
0007BBB602BBBBA0
ENDCHAR
STARTCHAR Wcircumflex
ENCODING 372
SWIDTH 972 0
DWIDTH 23 0
BBX 23 26 0 0
BITMAP
000000000777700000000000
000000003A3A0B0000000000
00000001C2C2759000000000
0000000A4A40959500000000
0000006868000B2B20000000
000000000000000000000000
65B2900000B56A100047A2A0
2983B00003893B000083B470
0B47A100074B380000B29830
0A2A65000A2A750001A65B00
065B39000B56A130047A2A00
03883B003893B370083B4700
00B57A1074B381B00B298300
00A2A750A2A751B01A65B000
0074B380B56A188347A2A000
003893B2893B0B4773B47000
000B56A14B380A2B32983000
000B2A741A75665B065B0000
00074B3856B1B398392A0000
0004792B43B083B575470000
0000B66B138057A2A0830000
0000B29747501A65B0B00000
000083B477100B3893700000
000047A2B100093B56100000
00001A65B000056A2A000000
00000B39830001A74B000000
ENDCHAR
STARTCHAR wcircumflex
ENCODING 373
SWIDTH 521 0
DWIDTH 13 0
BBX 13 14 0 0
BITMAP
00000430000000
00003B24000000
0001B11B200000
00000000000000
A2B00B39047920
65B01A68084B00
297457AB0B2900
0B4793BA2B6600
092AB3B6979200
056AA7E3F3B000
02A76AA3D29000
00B38B57A75000
0092D81A6E1000
0056B40B3D0000
ENDCHAR
STARTCHAR Ycircumflex
ENCODING 374
SWIDTH 769 0
DWIDTH 18 0
BBX 19 26 0 0
BITMAP
0000001B2C2000000000
00000094945600000000
00000585853A30000000
00002B2B01B2B1000000
0000B3B2004949000000
00000000000000000000
6785940000000B2B2B10
0B2C2B00000067769400
03A496700001B3B3A000
0085A3B2000A3B2B1000
001C2B3B004967760000
0004967761C2B3B00000
0000A3B2C24A4B200000
00001B3B4A2967000000
000006775942C0000000
000000B2B2C230000000
00000025344400000000
00000005144100000000
0000000B298300000000
0000000B298300000000
0000000B298300000000
0000000B298300000000
0000000B298300000000
0000000B298300000000
0000000B298300000000
0000000B298300000000
ENDCHAR
STARTCHAR ycircumflex
ENCODING 375
SWIDTH 422 0
DWIDTH 10 0
BBX 10 14 0 0
BITMAP
0000610000
0005842000
002B02B100
0000000000
7776004959
0B2C10C2C1
03A4A86950
00859B3A00
001C2CC200
0003234000
0001983000
0001983000
0001983000
0001983000
ENDCHAR
STARTCHAR Ydieresis
ENCODING 376
SWIDTH 769 0
DWIDTH 18 0
BBX 19 26 0 0
BITMAP
00004BB40019B9100000
0002B11B209404900000
0004700640B000B00000
0002B11B209404900000
00005BB50019B9100000
00000000000000000000
6785940000000B2B2B10
0B2C2B00000067769400
03A496700001B3B3A000
0085A3B2000A3B2B1000
001C2B3B004967760000
0004967761C2B3B00000
0000A3B2C24A4B200000
00001B3B4A2967000000
000006775942C0000000
000000B2B2C230000000
00000025344400000000
00000005144100000000
0000000B298300000000
0000000B298300000000
0000000B298300000000
0000000B298300000000
0000000B298300000000
0000000B298300000000
0000000B298300000000
0000000B298300000000
ENDCHAR
STARTCHAR circumflex
ENCODING 710
SWIDTH 298 0
DWIDTH 7 0
BBX 5 3 1 11
BITMAP
016000
0A4600
670680
ENDCHAR
STARTCHAR dotaccent
ENCODING 729
SWIDTH 212 0
DWIDTH 5 0
BBX 3 3 1 12
BITMAP
0100
5F70
4E60
ENDCHAR
STARTCHAR ring
ENCODING 730
SWIDTH 212 0
DWIDTH 5 0
BBX 3 3 1 11
BITMAP
5A50
A0A0
5A50
ENDCHAR
STARTCHAR tilde
ENCODING 732
SWIDTH 329 0
DWIDTH 8 0
BBX 6 2 1 11
BITMAP
4CA227
813AB3
ENDCHAR
STARTCHAR gravecomb
ENCODING 768
SWIDTH 0 0
DWIDTH 0 0
BBX 3 3 1 11
BITMAP
5100
3900
0A30
ENDCHAR
STARTCHAR acutecomb
ENCODING 769
SWIDTH 0 0
DWIDTH 0 0
BBX 3 3 1 11
BITMAP
0430
1C00
8500
ENDCHAR
STARTCHAR uni0302
ENCODING 770
SWIDTH 0 0
DWIDTH 0 0
BBX 5 3 1 11
BITMAP
016000
0A4600
670680
ENDCHAR
STARTCHAR tildecomb
ENCODING 771
SWIDTH 0 0
DWIDTH 0 0
BBX 6 2 1 11
BITMAP
4CA227
813AB3
ENDCHAR
STARTCHAR uni0307
ENCODING 775
SWIDTH 0 0
DWIDTH 0 0
BBX 3 3 1 12
BITMAP
0100
5F70
4E60
ENDCHAR
STARTCHAR uni0308
ENCODING 776
SWIDTH 0 0
DWIDTH 0 0
BBX 5 2 1 12
BITMAP
770960
990B70
ENDCHAR
STARTCHAR uni030A
ENCODING 778
SWIDTH 0 0
DWIDTH 0 0
BBX 3 3 1 11
BITMAP
5A50
A0A0
5A50
ENDCHAR
STARTCHAR uni0327
ENCODING 807
SWIDTH 0 0
DWIDTH 0 0
BBX 4 4 1 -4
BITMAP
0830
3EB8
110C
5BC6
ENDCHAR
STARTCHAR Wgrave
ENCODING 7808
SWIDTH 972 0
DWIDTH 23 0
BBX 23 26 0 0
BITMAP
000000000B2B000000000000
000000000496600000000000
0000000000A3B10000000000
00000000002A490000000000
0000000000085A3000000000
000000000000000000000000
65B2900000B56A100047A2A0
2983B00003893B000083B470
0B47A100074B380000B29830
0A2A65000A2A750001A65B00
065B39000B56A130047A2A00
03883B003893B370083B4700
00B57A1074B381B00B298300
00A2A750A2A751B01A65B000
0074B380B56A188347A2A000
003893B2893B0B4773B47000
000B56A14B380A2B32983000
000B2A741A75665B065B0000
00074B3856B1B398392A0000
0004792B43B083B575470000
0000B66B138057A2A0830000
0000B29747501A65B0B00000
000083B477100B3893700000
000047A2B100093B56100000
00001A65B000056A2A000000
00000B39830001A74B000000
ENDCHAR
STARTCHAR wgrave
ENCODING 7809
SWIDTH 521 0
DWIDTH 13 0
BBX 13 14 0 0
BITMAP
00000510000000
00000480000000
000000A2000000
00000000000000
A2B00B39047920
65B01A68084B00
297457AB0B2900
0B4793BA2B6600
092AB3B6979200
056AA7E3F3B000
02A76AA3D29000
00B38B57A75000
0092D81A6E1000
0056B40B3D0000
ENDCHAR
STARTCHAR Wacute
ENCODING 7810
SWIDTH 972 0
DWIDTH 23 0
BBX 23 26 0 0
BITMAP
0000000000093B2000000000
000000000039570000000000
0000000000B2B00000000000
000000000678500000000000
000000001B2A000000000000
000000000000000000000000
65B2900000B56A100047A2A0
2983B00003893B000083B470
0B47A100074B380000B29830
0A2A65000A2A750001A65B00
065B39000B56A130047A2A00
03883B003893B370083B4700
00B57A1074B381B00B298300
00A2A750A2A751B01A65B000
0074B380B56A188347A2A000
003893B2893B0B4773B47000
000B56A14B380A2B32983000
000B2A741A75665B065B0000
00074B3856B1B398392A0000
0004792B43B083B575470000
0000B66B138057A2A0830000
0000B29747501A65B0B00000
000083B477100B3893700000
000047A2B100093B56100000
00001A65B000056A2A000000
00000B39830001A74B000000
ENDCHAR
STARTCHAR wacute
ENCODING 7811
SWIDTH 521 0
DWIDTH 13 0
BBX 13 14 0 0
BITMAP
00000042000000
000001B0000000
00000940000000
00000000000000
A2B00B39047920
65B01A68084B00
297457AB0B2900
0B4793BA2B6600
092AB3B6979200
056AA7E3F3B000
02A76AA3D29000
00B38B57A75000
0092D81A6E1000
0056B40B3D0000
ENDCHAR
STARTCHAR Wdieresis
ENCODING 7812
SWIDTH 972 0
DWIDTH 23 0
BBX 23 26 0 0
BITMAP
00000019B91005BB40000000
000000A305803A01B1000000
000000B000B0650083000000
000000A305803A01B1000000
0000001AB91005BB40000000
000000000000000000000000
65B2900000B56A100047A2A0
2983B00003893B000083B470
0B47A100074B380000B29830
0A2A65000A2A750001A65B00
065B39000B56A130047A2A00
03883B003893B370083B4700
00B57A1074B381B00B298300
00A2A750A2A751B01A65B000
0074B380B56A188347A2A000
003893B2893B0B4773B47000
000B56A14B380A2B32983000
000B2A741A75665B065B0000
00074B3856B1B398392A0000
0004792B43B083B575470000
0000B66B138057A2A0830000
0000B29747501A65B0B00000
000083B477100B3893700000
000047A2B100093B56100000
00001A65B000056A2A000000
00000B39830001A74B000000
ENDCHAR
STARTCHAR wdieresis
ENCODING 7813
SWIDTH 521 0
DWIDTH 13 0
BBX 13 14 0 0
BITMAP
0000A50B300000
0000C60D500000
00000000000000
00000000000000
A2B00B39047920
65B01A68084B00
297457AB0B2900
0B4793BA2B6600
092AB3B6979200
056AA7E3F3B000
02A76AA3D29000
00B38B57A75000
0092D81A6E1000
0056B40B3D0000
ENDCHAR
STARTCHAR uni1E9E
ENCODING 7838
SWIDTH 784 0
DWIDTH 19 0
BBX 17 20 1 0
BITMAP
B3892BBBBBBBBBB000
B38910000000000000
B3892BBBBBBBBBB000
B38910000000000000
B3892BBBBBBBBBB000
B389100002B4966000
B3891000093B2C0000
B38910003A57850000
B3891000B2C2B21000
B3891005876A33B300
B389100B2B3A3A2B10
B389106694B2649570
B3891000000076A2B0
B389100000000B74B0
B389100000000B65B0
B389100000006784B0
B389108BBBBB81C570
B389100000002B5B10
B389108BBBBCA7B300
B389108BBBBBB81000
ENDCHAR
STARTCHAR Ygrave
ENCODING 7922
SWIDTH 769 0
DWIDTH 18 0
BBX 19 26 0 0
BITMAP
00000049660000000000
0000000A3B1000000000
00000002A49000000000
0000000085A300000000
000000001B2B00000000
00000000000000000000
6785940000000B2B2B10
0B2C2B00000067769400
03A496700001B3B3A000
0085A3B2000A3B2B1000
001C2B3B004967760000
0004967761C2B3B00000
0000A3B2C24A4B200000
00001B3B4A2967000000
000006775942C0000000
000000B2B2C230000000
00000025344400000000
00000005144100000000
0000000B298300000000
0000000B298300000000
0000000B298300000000
0000000B298300000000
0000000B298300000000
0000000B298300000000
0000000B298300000000
0000000B298300000000
ENDCHAR
STARTCHAR ygrave
ENCODING 7923
SWIDTH 422 0
DWIDTH 10 0
BBX 10 14 0 0
BITMAP
0000600000
0000750000
00001C1000
0000000000
7776004959
0B2C10C2C1
03A4A86950
00859B3A00
001C2CC200
0003234000
0001983000
0001983000
0001983000
0001983000
ENDCHAR
STARTCHAR endash
ENCODING 8211
SWIDTH 507 0
DWIDTH 12 0
BBX 10 3 1 4
BITMAP
9BBBBBBBBB
0000000000
9BBBBBBBBB
ENDCHAR
STARTCHAR emdash
ENCODING 8212
SWIDTH 552 0
DWIDTH 13 0
BBX 12 3 1 4
BITMAP
9BBBBBBBBBB1
000000000000
9BBBBBBBBBB1
ENDCHAR
STARTCHAR quoteleft
ENCODING 8216
SWIDTH 146 0
DWIDTH 4 0
BBX 3 3 0 7
BITMAP
6500
6590
65B0
ENDCHAR
STARTCHAR quoteright
ENCODING 8217
SWIDTH 146 0
DWIDTH 4 0
BBX 3 3 0 7
BITMAP
65B0
54B0
00B0
ENDCHAR
STARTCHAR quotesinglbase
ENCODING 8218
SWIDTH 146 0
DWIDTH 4 0
BBX 3 3 0 -3
BITMAP
65B0
54B0
00B0
ENDCHAR
STARTCHAR quotedblleft
ENCODING 8220
SWIDTH 297 0
DWIDTH 7 0
BBX 7 3 0 7
BITMAP
6500B000
6590B270
65B0B380
ENDCHAR
STARTCHAR quotedblright
ENCODING 8221
SWIDTH 297 0
DWIDTH 7 0
BBX 7 3 0 7
BITMAP
65B0B380
54B09380
00B00380
ENDCHAR
STARTCHAR quotedblbase
ENCODING 8222
SWIDTH 297 0
DWIDTH 7 0
BBX 7 3 0 -3
BITMAP
65B0B380
54B09380
00B00380
ENDCHAR
STARTCHAR bullet
ENCODING 8226
SWIDTH 302 0
DWIDTH 7 0
BBX 5 5 1 2
BITMAP
18BA20
8503B0
B000B0
8603B0
08BA20
ENDCHAR
STARTCHAR ellipsis
ENCODING 8230
SWIDTH 528 0
DWIDTH 13 0
BBX 12 2 0 0
BITMAP
1A740B37092B
1A740B47092B
ENDCHAR
STARTCHAR guilsinglleft
ENCODING 8249
SWIDTH 178 0
DWIDTH 4 0
BBX 4 6 0 2
BITMAP
0022
06B1
0433
1741
06B1
0021
ENDCHAR
STARTCHAR guilsinglright
ENCODING 8250
SWIDTH 178 0
DWIDTH 4 0
BBX 3 6 1 2
BITMAP
4000
9900
6410
4540
8900
3000
ENDCHAR
STARTCHAR fraction
ENCODING 8260
SWIDTH 362 0
DWIDTH 9 0
BBX 9 10 0 0
BITMAP
0000084B10
00002A4800
000093B100
0003A57000
000A2B0000
0039760000
00B2B00000
0588500000
0B2B000000
6794000000
ENDCHAR
STARTCHAR uni2074
ENCODING 8308
SWIDTH 204 0
DWIDTH 5 0
BBX 5 5 0 5
BITMAP
038500
088000
155410
276930
276930
ENDCHAR
STARTCHAR Euro
ENCODING 8364
SWIDTH 462 0
DWIDTH 11 0
BBX 11 10 0 0
BITMAP
0003ABBB9300
006A6BB94920
03A5A103A000
011200000000
ABBBB6000000
ABBBB6000000
010100001000
03A5B103C000
006A6BB94920
0003ABBBA300
ENDCHAR
STARTCHAR trademark
ENCODING 8482
SWIDTH 461 0
DWIDTH 11 0
BBX 11 5 0 5
BITMAP
ADDD2A404920
00000BA3B920
03800B3D4920
03800B010920
03800B000920
ENDCHAR
STARTCHAR minus
ENCODING 8722
SWIDTH 420 0
DWIDTH 10 0
BBX 10 3 0 4
BITMAP
1DDDDDDDD2
0000000000
1DDDDDDDD2
ENDCHAR
STARTCHAR uni2215
ENCODING 8725
SWIDTH 278 0
DWIDTH 7 0
BBX 7 10 0 0
BITMAP
00015330
00056A20
000A2B00
001A6600
0066A100
00B2B000
01A66000
065B1000
0B2A0000
2A650000
ENDCHAR
STARTCHAR .notdef
ENCODING -1
SWIDTH 500 0
DWIDTH 12 0
BBX 10 28 1 -6
BITMAP
CFFFFFFFFC
C83333338C
C60000006C
C60000006C
C60000006C
C60000006C
C60000006C
C60000006C
C60000006C
C60000006C
C60000006C
C60000006C
C60000006C
C60000006C
C60000006C
C60000006C
C60000006C
C60000006C
C60000006C
C60000006C
C60000006C
C60000006C
C60000006C
C60000006C
C60000006C
C60000006C
CFFFFFFFFC
2333333332
ENDCHAR
STARTCHAR NULL
ENCODING -1
SWIDTH 600 0
DWIDTH 14 0
BBX 1 1 0 0
BITMAP
00
ENDCHAR
STARTCHAR acutecomb.case
ENCODING -1
SWIDTH 0 0
DWIDTH 0 0
BBX 6 5 1 21
BITMAP
003A57
00B2B0
057850
1C2B00
85A300
ENDCHAR
STARTCHAR ampersand.case
ENCODING -1
SWIDTH 797 0
DWIDTH 19 0
BBX 18 20 0 0
BITMAP
0000018BBBA4000000
00002B7ABB89700000
0000B5B20079950000
00047B17BA294B0000
00083B4802A56B0000
00092B6500B56A0000
00074B49097A3B0000
0003958A4497860000
0000B2A4C259700000
00063A2C4A33000000
00A727659860002100
0766B0A395B301B240
0B2B4A1B1C3B194A46
3884B10493B5908677
47A2A0008577952590
2993B4001B2B3B2600
0B4A19BB82B2C3B000
03A792003758596800
005B7ABCA509495940
00028BBBA941B2C2B1
ENDCHAR
STARTCHAR asciicircum.case
ENCODING -1
SWIDTH 540 0
DWIDTH 13 0
BBX 13 11 0 10
BITMAP
00000020000000
000002A0000000
00000936000000
00003957100000
0000B2B1A00000
00057854850000
001B2B0B2B0000
0085A303957000
02B4900093B100
0A3B10002B3900
39670000075A30
ENDCHAR
STARTCHAR asciitilde.case
ENCODING -1
SWIDTH 640 0
DWIDTH 15 0
BBX 14 5 1 8
BITMAP
38BBBA73000151
48BBB979BBBA51
A51004B93115C2
4ABBBB879BA861
51000048BBBA50
ENDCHAR
STARTCHAR asterisk.case
ENCODING -1
SWIDTH 482 0
DWIDTH 12 0
BBX 10 10 1 10
BITMAP
00065B0000
00065B0000
2835591580
1492006720
7B600019B3
0030001200
01B2117600
08494A3B20
015801B100
0000001000
ENDCHAR
STARTCHAR at.case
ENCODING -1
SWIDTH 915 0
DWIDTH 22 0
BBX 21 20 1 0
BITMAP
0000005ABBBBB720000000
00006C89BBBB9798100000
000988B5100038A6B20000
0096A7000000002A5B1000
0599600000000000B5A000
0C4A0004ABB9A4502A8400
48A30099ACB7B5600A3900
93B0076B5006C560066B00
B3900B670000B560048A10
B48038920000B560038920
B47038920000B560047920
B3900B570000B560074B00
93B0076B5006C2A02C1B00
48930099ACB7B16BB36600
0C4A0004ABB9482005B000
059860000000019BB70000
0097A70000000000000000
000998B510004A40000000
00006C88ABBB8562000000
0000016ABBBCB940000000
ENDCHAR
STARTCHAR backslash.case
ENCODING -1
SWIDTH 504 0
DWIDTH 12 0
BBX 12 23 0 -1
BITMAP
516230000000
75B2A0000000
2A65B1000000
0B2A65000000
075B2A000000
02A65B100000
00B2A6500000
0075B2A00000
002A65B10000
000B2A650000
00075B2A0000
0002A65B1000
0000B2A65000
000075B2A000
00002A65B100
00000B2A6500
0000075B2A00
000002A65B10
000000B2A650
00000075B2A0
0000002A65B1
0000000B2A65
000000075B2A
ENDCHAR
STARTCHAR bar.case
ENCODING -1
SWIDTH 262 0
DWIDTH 6 0
BBX 5 23 1 -1
BITMAP
524510
B38910
B38910
B38910
B38910
B38910
B38910
B38910
B38910
B38910
B38910
B38910
B38910
B38910
B38910
B38910
B38910
B38910
B38910
B38910
B38910
B38910
B38910
ENDCHAR
STARTCHAR braceleft.case
ENCODING -1
SWIDTH 504 0
DWIDTH 12 0
BBX 10 23 1 -2
BITMAP
00094592BA
000B56B2BA
000B56B000
000B56B2BA
000B56B000
000B56B000
000B56B000
000B56B000
000B56B000
9B3B56B000
000B56B000
9B3B56B000
9B3B56B000
000B56B000
000B56B000
000B56B000
000B56B000
000B56B000
000B56B000
000B56B2BA
000B56B2BA
000B56B000
00094592BA
ENDCHAR
STARTCHAR braceright.case
ENCODING -1
SWIDTH 506 0
DWIDTH 12 0
BBX 10 23 1 -2
BITMAP
9B39369000
000B47A000
9B3B47A000
9B3B47A000
000B47A000
000B47A000
000B47A000
000B47A000
000B47A000
000B47A000
000B47A2BB
000B47A2BB
000B47A000
000B47A2BB
000B47A000
000B47A000
000B47A000
000B47A000
000B47A000
9B3B47A000
000B47A000
9B3B47A000
9B39369000
ENDCHAR
STARTCHAR bracketleft.case
ENCODING -1
SWIDTH 453 0
DWIDTH 11 0
BBX 9 23 1 -2
BITMAP
93782BBB80
B3892BBB80
B389100000
B3892BBB80
B389100000
B389100000
B389100000
B389100000
B389100000
B389100000
B389100000
B389100000
B389100000
B389100000
B389100000
B389100000
B389100000
B389100000
B389100000
B3892BBB80
B3892BBB80
B389100000
93782BBB80
ENDCHAR
STARTCHAR bracketright.case
ENCODING -1
SWIDTH 453 0
DWIDTH 11 0
BBX 9 23 1 -2
BITMAP
9BBA378290
00003892A0
9BBA3892A0
9BBA3892A0
00003892A0
00003892A0
00003892A0
00003892A0
00003892A0
00003892A0
00003892A0
00003892A0
00003892A0
00003892A0
00003892A0
00003892A0
00003892A0
00003892A0
00003892A0
9BBA3892A0
00003892A0
9BBA3892A0
9BBA378290
ENDCHAR
STARTCHAR brokenbar.case
ENCODING -1
SWIDTH 262 0
DWIDTH 6 0
BBX 5 23 1 0
BITMAP
524510
B38910
B38910
B38910
B38910
B38910
B38910
B38910
B38910
B38910
524510
000000
000000
B38910
B38910
B38910
B38910
B38910
B38910
B38910
B38910
B38910
B38910
ENDCHAR
STARTCHAR bullet.case
ENCODING -1
SWIDTH 503 0
DWIDTH 12 0
BBX 10 10 1 5
BITMAP
0029BB9300
05B3002A60
2B18BC81A3
83B5004B29
B29000083B
B29000083B
83B5004B29
2B18CC81A3
05B3002A60
0029BB9300
ENDCHAR
STARTCHAR uni0327.case
ENCODING -1
SWIDTH 0 0
DWIDTH 0 0
BBX 6 7 1 -6
BITMAP
001100
00B300
04A000
0CCB91
160067
310066
39BB70
ENDCHAR
STARTCHAR cent.case
ENCODING -1
SWIDTH 577 0
DWIDTH 14 0
BBX 12 23 1 -1
BITMAP
0000047B0000
0000047B0000
0000047B0000
0000047B0000
000000000000
00005ABBB940
003BABBBA699
02B9A2003B40
0B6818CC9250
47B1B5004600
93A660000000
A38920000000
A2A920000000
92B660000000
4759B5004600
0B17AACC9650
03B139BBB738
003B610017B2
00006ABBA600
0000047B0000
0000047B0000
0000047B0000
0000047B0000
ENDCHAR
STARTCHAR uni0302.case
ENCODING -1
SWIDTH 0 0
DWIDTH 0 0
BBX 11 5 1 21
BITMAP
000868600000
004A4A1B0000
01C2C2768000
0A3B30A4A400
7777001B2C10
ENDCHAR
STARTCHAR colon.case
ENCODING -1
SWIDTH 262 0
DWIDTH 6 0
BBX 5 13 1 0
BITMAP
B38910
B38910
B38910
B38910
000000
000000
000000
000000
000000
B38910
B38910
B38910
B38910
ENDCHAR
STARTCHAR comma.case
ENCODING -1
SWIDTH 338 0
DWIDTH 8 0
BBX 6 6 1 -2
BITMAP
04792B
083B47
0B3983
1A74B0
65A2A0
A2B660
ENDCHAR
STARTCHAR copyright.case
ENCODING -1
SWIDTH 895 0
DWIDTH 21 0
BBX 21 20 0 0
BITMAP
00000027BBBBB940000000
000018B89BBBA99B400000
0002B7A9400016C7B60000
001C5C3000000009895000
00A5C2000000000096B200
039840004ABBA6100B4A00
0A3B000899CB8690057A20
0C560077A600580000B560
299300B57000000000B290
48A10298300000000092B0
48A10298300000000092B0
299300B57000000000B390
0C560067B500570000B560
0A3B00099ACB9590058A20
049840004ABCB7100B4A00
00A5C2000000000086B200
001C5C3000000009896000
0002C7A9300016C7B60000
000018B89BBBA99B400000
00000027BBBBB940000000
ENDCHAR
STARTCHAR currency.case
ENCODING -1
SWIDTH 676 0
DWIDTH 16 0
BBX 16 15 0 1
BITMAP
000840000002A000
0092B400002C3900
072B27000063A561
0692718BB92565A0
00861C5003B33B00
0001935BB71C1100
0000B4A107783000
0001A74000A65000
0000B4A006783000
0032935BB71C1500
01C21C5003B41A40
0B37518BB923C2B2
1478470000475B22
0074B10000087420
0008100000007100
ENDCHAR
STARTCHAR degree.case
ENCODING -1
SWIDTH 413 0
DWIDTH 10 0
BBX 10 9 0 11
BITMAP
003ABBA200
04B8BB7B30
0C6901A5B0
29920037A1
4792003792
2A4901A3B1
0B26BB43A0
03C3004C20
0029BB8100
ENDCHAR
STARTCHAR uni0308.case
ENCODING -1
SWIDTH 0 0
DWIDTH 0 0
BBX 12 5 1 21
BITMAP
19B91004BB50
8504901B10A2
B000B0470065
8504901B10A2
19B91004BB50
ENDCHAR
STARTCHAR divide.case
ENCODING -1
SWIDTH 618 0
DWIDTH 15 0
BBX 13 13 1 3
BITMAP
000003B9000000
00000A17500000
00000A17500000
000003B9000000
9BBBBBBBBBBB70
00000000000000
9BBBBBBBBBBB70
9BBBBBBBBBBB70
00000000000000
000003B9000000
00000A17500000
00000A17500000
000003B9000000
ENDCHAR
STARTCHAR uni2215.case
ENCODING -1
SWIDTH 483 0
DWIDTH 12 0
BBX 11 20 0 0
BITMAP
00000075B2A0
000000B2A650
000001A65B10
0000065B2A00
00000B2A6600
00001A66A100
000066A2B000
0000A2B56000
0001B56A1000
00056A2B0000
000A2B570000
001B57A20000
0057A2B00000
00A2B4700000
00B479200000
05792B000000
092B48000000
0B4793000000
4793C0000000
93B480000000
ENDCHAR
STARTCHAR dollar.case
ENCODING -1
SWIDTH 660 0
DWIDTH 16 0
BBX 16 23 0 -1
BITMAP
0000002350000000
00000047B0000000
00003747B1720000
001A9347B15B8000
01B47A47B2B46900
093A6347B12A6850
1B587947B1C3B2A0
2883B047B0294210
1974A52390000000
0B2B37B940000000
04A2A9437B930000
004B528B94299100
00017B8427B63B10
00000038B936A390
0000003432A775B0
00013047B00B3892
1583B247B03A56A1
0C3A3947B2A3B2B0
0775B547B17B3A40
00992547B152B600
0004B947B1BA3000
00000147B1000000
00000047B0000000
ENDCHAR
STARTCHAR eight.case
ENCODING -1
SWIDTH 561 0
DWIDTH 13 0
BBX 13 20 0 0
BITMAP
00029BBBB50000
005B8ABB88A100
04A791005B6900
0B4A19BB458A20
1A84A301B2B470
37A2A00056A290
4793B00046A290
1A58792072B470
0A2A739B624A20
02C36C825B4400
022A935AA29600
0B2539B63C3B20
1A669105A3B470
4892A00056B190
37A2A00046A290
1A84A301B2B470
0B4B19BB448A20
04A791005B6900
006B7ABB98A100
00029BBBB50000
ENDCHAR
STARTCHAR ellipsis.case
ENCODING -1
SWIDTH 766 0
DWIDTH 18 0
BBX 17 4 1 0
BITMAP
B38910B38920B29830
B38910B38920B29830
B38910B38920B29830
B38910B38920B29830
ENDCHAR
STARTCHAR emdash.case
ENCODING -1
SWIDTH 790 0
DWIDTH 19 0
BBX 17 4 1 8
BITMAP
9BBBBBBBBBBBBBBB90
000000000000000000
9BBBBBBBBBBBBBBB90
9BBBBBBBBBBBBBBB90
ENDCHAR
STARTCHAR endash.case
ENCODING -1
SWIDTH 721 0
DWIDTH 17 0
BBX 16 4 1 8
BITMAP
9BBBBBBBBBBBBBB1
0000000000000000
9BBBBBBBBBBBBBB1
9BBBBBBBBBBBBBB1
ENDCHAR
STARTCHAR equal.case
ENCODING -1
SWIDTH 618 0
DWIDTH 15 0
BBX 13 11 1 4
BITMAP
9BBBBBBBBBBB70
00000000000000
9BBBBBBBBBBB70
9BBBBBBBBBBB70
00000000000000
00000000000000
00000000000000
9BBBBBBBBBBB70
9BBBBBBBBBBB70
00000000000000
9BBBBBBBBBBB70
ENDCHAR
STARTCHAR Euro.case
ENCODING -1
SWIDTH 767 0
DWIDTH 18 0
BBX 18 20 0 0
BITMAP
000000028BBBBA6000
0000019A8ABBB77C50
00001B6A820016B4B6
0000A5C329CBA51B31
00057A45B40018A220
000B494A0000004200
004893B10000000000
002130200000000000
9BBBBBBBBBBB100000
000000000000000000
9BBBBBBBBBBB100000
9BBBBBBBBBBB100000
002130200000000000
004893B10000000000
000B394A0000004200
00057945B40018A220
0000A5B329CBA51B31
00001B6A820016B4B6
0000019A8ABBB77C50
000000038BBBBA6100
ENDCHAR
STARTCHAR exclam.case
ENCODING -1
SWIDTH 262 0
DWIDTH 6 0
BBX 5 20 1 0
BITMAP
B38910
B38910
B38910
B38910
B38910
B38910
B38910
B38910
B38910
B38910
B38910
B38910
B38910
B38910
725610
000000
B38910
B38910
B38910
B38910
ENDCHAR
STARTCHAR exclamdown.case
ENCODING -1
SWIDTH 262 0
DWIDTH 6 0
BBX 5 20 1 -5
BITMAP
B37910
B37910
B37910
B37910
000000
725610
B37910
B37910
B37910
B37910
B37910
B37910
B37910
B37910
B37910
B37910
B37910
B37910
B37910
B37910
ENDCHAR
STARTCHAR five.case
ENCODING -1
SWIDTH 558 0
DWIDTH 13 0
BBX 13 20 0 0
BITMAP
08BBBBBBBBBB20
00000000000000
08BBBBBBBBBB20
08BBBBBBBBBB20
00000000000000
0B298200000000
0B298200000000
0B298200000000
0B2982BB930000
0B298200399000
0B2982BB926800
0B2982BB6C2A20
00000001B5A470
0110100046B290
38A2A00046A290
1A74A401B2B470
0B3B19BB449A20
03A691004B6900
005B7ABB99A100
00029BBBB50000
ENDCHAR
STARTCHAR four.case
ENCODING -1
SWIDTH 585 0
DWIDTH 14 0
BBX 14 20 0 0
BITMAP
000000B2B48000
000003875B1000
00000A2B390000
00002A66A20000
000093B2A00000
0001B578400000
00084B2B000000
001B3975000000
0066A2B0000000
00B2A660000000
05793B1B389200
0B2B480B389200
0000000B389200
3BBBBB4B3892B4
3BBBBB4B3892B4
0000000B389200
3BBBBB4B3892B4
0000000B389200
0000000B389200
0000000B389200
ENDCHAR
STARTCHAR uni2074.case
ENCODING -1
SWIDTH 312 0
DWIDTH 7 0
BBX 7 8 0 12
BITMAP
00396600
00A2B000
04875000
0B2B0000
000083B0
3BB783B0
3BB783B0
000083B0
ENDCHAR
STARTCHAR fraction.case
ENCODING -1
SWIDTH 655 0
DWIDTH 16 0
BBX 14 20 1 0
BITMAP
00000000005784
0000000000B2A0
00000000066930
000000001B3A00
0000000085A200
00000001B49000
000000094B1000
0000002A580000
000000A3B10000
00000396600000
00000A2B000000
00004875000000
0000B2B0000000
00057840000000
000B2B00000000
00669300000000
00B2A000000000
075A2000000000
1B390000000000
84B20000000000
ENDCHAR
STARTCHAR gravecomb.case
ENCODING -1
SWIDTH 0 0
DWIDTH 0 0
BBX 6 5 1 21
BITMAP
85A300
1B2B00
057850
00B2C1
003A58
ENDCHAR
STARTCHAR greater.case
ENCODING -1
SWIDTH 677 0
DWIDTH 16 0
BBX 15 17 1 1
BITMAP
5000000000000000
7A30000000000000
82A9100000000000
5B54B60000000000
A27B36B400000000
3B82A928A2000000
005B53B73A810000
00007B36B45B5000
0000029928A37B10
00003A13B73A4000
0029928706900000
07B35B54B2000000
B63B73A810000000
29928A2000000000
B36B400000000000
3B70000000000000
9100000000000000
ENDCHAR
STARTCHAR guillemotleft.case
ENCODING -1
SWIDTH 666 0
DWIDTH 16 0
BBX 14 13 1 3
BITMAP
00001800000027
0004B3000005B2
008A2900019828
0A54B3000B45B2
71592900707839
4B31B3005B22B2
82A7000083B600
3B46B2004B37A1
82983A0092A749
2B55B3003B46B2
00892900019838
0004B3000005B2
00001800000028
ENDCHAR
STARTCHAR guillemotright.case
ENCODING -1
SWIDTH 666 0
DWIDTH 16 0
BBX 14 13 1 3
BITMAP
72000000810000
3B5000004B4000
8299100092A800
2B54B0003B46A0
9387070092A517
2B23B5003B14B4
006B3800008A28
1A74B4002B65B3
937A2900A39928
2B64B3003B55B2
83891000929800
2B5000003B4000
82000000810000
ENDCHAR
STARTCHAR guilsinglleft.case
ENCODING -1
SWIDTH 338 0
DWIDTH 8 0
BBX 6 13 1 3
BITMAP
000018
0004B3
008A29
0A54B3
715929
4B31B3
82A700
3B46B2
82983A
2B55B3
008929
0004B3
000018
ENDCHAR
STARTCHAR guilsinglright.case
ENCODING -1
SWIDTH 338 0
DWIDTH 8 0
BBX 6 13 1 3
BITMAP
720000
3B5000
829910
2B54B0
938707
2B23B5
006B38
1A74B4
937A29
2B64B3
838910
2B5000
820000
ENDCHAR
STARTCHAR hyphen.case
ENCODING -1
SWIDTH 445 0
DWIDTH 11 0
BBX 9 4 1 8
BITMAP
9BBBBBBB50
0000000000
9BBBBBBB50
9BBBBBBB50
ENDCHAR
STARTCHAR less.case
ENCODING -1
SWIDTH 677 0
DWIDTH 16 0
BBX 15 17 1 1
BITMAP
0000000000000730
000000000005B500
0000000002B82A30
000000019A37B310
0000006B45B53B30
00000B73B82A9100
0006814A27B30000
02B45B5095000000
8929A27B30000000
03B73A82A9100000
0006B45B53B70000
000018A37B36B500
0000002A82992840
000000004B63B700
00000000007B3530
0000000000019910
0000000000000320
ENDCHAR
STARTCHAR logicalnot.case
ENCODING -1
SWIDTH 618 0
DWIDTH 15 0
BBX 13 9 1 3
BITMAP
9BBBBBBBBBBB70
00000000000000
9BBBBBBBBBBB70
9BBBBBBBBBBB70
00000000000000
0000000047A290
0000000047A290
0000000047A290
0000000047A290
ENDCHAR
STARTCHAR uni00B5.case
ENCODING -1
SWIDTH 792 0
DWIDTH 19 0
BBX 18 25 1 -5
BITMAP
B38910000047A2A000
B38910000047A2A000
B38910000047A2A000
B38910000047A2A000
B38910000047A2A000
B38910000047A2A000
B38910000047A2A000
B38910000047A2A000
B38910000047A2A000
B38910000047A2A000
B38910000047A2A000
B38910000047A2A000
B38910000047A29000
B38910000056B38000
B389100000A2B56000
B389271018838A1910
B38926BBB61B5924B5
B389260005B6C18810
B38928CBB98B2556B5
B38929BBBB50018BC6
B38910000000000000
B38910000000000000
B38910000000000000
B38910000000000000
B37910000000000000
ENDCHAR
STARTCHAR minus.case
ENCODING -1
SWIDTH 618 0
DWIDTH 15 0
BBX 13 4 1 8
BITMAP
9BBBBBBBBBBB70
00000000000000
9BBBBBBBBBBB70
9BBBBBBBBBBB70
ENDCHAR
STARTCHAR multiply.case
ENCODING -1
SWIDTH 580 0
DWIDTH 14 0
BBX 12 13 1 3
BITMAP
001300001000
011B4001B200
1881B31B3A40
2C9812B3A666
03C82B3A6690
0022B3A66900
001B3A669100
01B3A6690A40
1B3A669281B4
93A6690B9816
08669003C950
005900003700
001000000000
ENDCHAR
STARTCHAR nine.case
ENCODING -1
SWIDTH 558 0
DWIDTH 13 0
BBX 13 20 0 -1
BITMAP
00039BBBB50000
006B8ABB88A100
04A881005B6900
0B4A19BB458A20
2A93A301B2C470
37A1A00046A390
3793A00038A2A0
1A48A30038A2A0
0A2A79BA38A2A0
03B17BBA38A2A0
004C500038A2A0
00017BBA38A2A0
0000000038A2A0
0000000038A2A0
37A2A00046A290
1A74A401B2C470
0B3B19BB458A20
03A791005B6900
005B7ABB88A000
00029BBBB50000
ENDCHAR
STARTCHAR numbersign.case
ENCODING -1
SWIDTH 776 0
DWIDTH 19 0
BBX 17 20 1 0
BITMAP
0000B47A100B47A100
0000B65B000B65B000
0002983B002983B000
00047A290000000000
09865B377BBBBBBB50
00083B650000000000
095A2983ABBBBBBB50
000B47A10000000000
093B65B1BBBBBBBB50
002983B00143150000
0013414003892A0000
9BBBBBBB956B387500
00000000083B560000
9BBBBBBB6A2A74A500
9BBBBBBB3B3892B500
000000000B55B00000
02983B001983B00000
047A290047A2A00000
065B470065B3700000
092B650083B6500000
ENDCHAR
STARTCHAR one.case
ENCODING -1
SWIDTH 378 0
DWIDTH 9 0
BBX 8 20 0 0
BITMAP
7BB2B74B
0000B74B
7BB2B74B
0000B74B
7BB2B74B
0000B74B
0000B74B
0000B74B
0000B74B
0000B74B
0000B74B
0000B74B
0000B74B
0000B74B
0000B74B
0000B74B
0000B74B
0000B74B
0000B74B
0000B74B
ENDCHAR
STARTCHAR onehalf.case
ENCODING -1
SWIDTH 735 0
DWIDTH 18 0
BBX 16 20 1 0
BITMAP
9B28920000066930
9B289200001B3A00
002892000075A200
0028920001B39000
00289200084B1000
002892002A480000
0028920093B10000
00289202A5700000
0026620A2B000000
0000003966000000
000000B2B0000000
00000487501ABB50
00000B2B00A200A2
0000579401A4C856
0000B2A001444984
00076930000685A0
001B390000452700
0085A20003BBBBB3
01B4900000000000
094B100003BBBBB3
ENDCHAR
STARTCHAR onequarter.case
ENCODING -1
SWIDTH 722 0
DWIDTH 17 0
BBX 16 20 1 0
BITMAP
9B28920000066930
9B289200001B3A00
002892000075A200
0028920001B39000
00289200084B1000
002892002A480000
0028920093B10000
00289202A5700000
0026620A2B000000
0000003966000000
000000B2B0000000
00000487500B2A00
00000B2B00579300
0000579400B3A000
0000B2A0076A2000
0007693000003892
001B39000ABB3892
0085A2000ABB3892
01B4900000003892
094B100000000000
ENDCHAR
STARTCHAR uni00B9.case
ENCODING -1
SWIDTH 306 0
DWIDTH 7 0
BBX 6 9 1 11
BITMAP
9B2892
9B2892
002892
002892
002892
002892
002892
002892
002662
ENDCHAR
STARTCHAR ordfeminine.case
ENCODING -1
SWIDTH 456 0
DWIDTH 11 0
BBX 9 9 1 11
BITMAP
000B3C0000
0048993000
0093D28000
01B5B5A000
05691A6400
0A2DBD2900
1A64057910
75BCBCC460
5150005150
ENDCHAR
STARTCHAR ordmasculine.case
ENCODING -1
SWIDTH 489 0
DWIDTH 12 0
BBX 10 9 1 11
BITMAP
005BBBA300
0988BB6A50
58850095B1
A290000A56
B370000937
A290000A66
49950095B1
0799BB8B40
004ABB9200
ENDCHAR
STARTCHAR paragraph.case
ENCODING -1
SWIDTH 893 0
DWIDTH 21 0
BBX 21 20 0 0
BITMAP
0004ABBBBBBBBBBBBBBB30
0089200000000000000000
06717BBBBBBBBBBBBBBB30
0B1B500000000000000000
48854BBBBBBBBBBBBBBB30
55B1B10000021312013210
56B3800000074B47029830
3886B10000074B47029830
0B1B9BBBBB874B47029830
05918CBBBB874B47029830
006A300000074B47029830
00029BBBBB874B47029830
0000000000074B47029830
0000000000074B47029830
0000000000074B47029830
0000000000074B47029830
0000000000074B47029830
0000000000074B47029830
0000000000074B47029830
0000000000074B47029830
ENDCHAR
STARTCHAR parenleft.case
ENCODING -1
SWIDTH 290 0
DWIDTH 7 0
BBX 8 23 0 -1
BITMAP
00042633
000C58A2
0057A490
00B39830
01A75B00
056B3800
0A2A7400
0B48A100
0B65B000
2983B000
3892A000
47A29000
47A2A000
3892B000
1A84B000
0B56B000
0B298300
084B5600
03893A00
00B47A10
0084B560
002A85B0
000A4B75
ENDCHAR
STARTCHAR parenright.case
ENCODING -1
SWIDTH 290 0
DWIDTH 7 0
BBX 8 23 -1 -3
BITMAP
67B49000
0B57B100
075B5700
02A84B00
00B38920
0074B470
0047A2A0
001A74B0
000B47A1
000B3892
000B2983
000A2A83
000B3992
000B48A1
000B66B0
002993B0
0056B390
0093A740
00B56B00
048A3A00
0A4A8400
2A84B000
43624000
ENDCHAR
STARTCHAR percent.case
ENCODING -1
SWIDTH 827 0
DWIDTH 20 0
BBX 20 20 0 0
BITMAP
004BBBB3000000A3B2C1
06A7BB6B400005967850
1C5901A3C0001C2B3B00
3892003792008594B200
389200379202B3A58000
0C5901A4B00B3B2C1000
04B8BB8C305866850000
0039BB9201C2B3A00000
00000000085A3B200000
000000003B4967000000
00000094B2B100000000
000003A6876029BB8100
00000B2C2B03B3005C10
00007694A30C16BB4390
0001B3A490395901B2B0
000A3B2C1057A10047A1
004967850038A10046B0
00C2C2B0000C6901B4A0
07694A200004B8BB7C20
2B4A580000004BBBA200
ENDCHAR
STARTCHAR period.case
ENCODING -1
SWIDTH 262 0
DWIDTH 6 0
BBX 5 4 1 0
BITMAP
B38910
B38910
B38910
B38910
ENDCHAR
STARTCHAR periodcentered.case
ENCODING -1
SWIDTH 262 0
DWIDTH 6 0
BBX 5 4 1 8
BITMAP
B38910
B38910
B38910
B38910
ENDCHAR
STARTCHAR plus.case
ENCODING -1
SWIDTH 616 0
DWIDTH 15 0
BBX 13 13 1 3
BITMAP
00006284400000
000083B6500000
000083B6500000
000083B6500000
9BB783B659BB70
000083B6500000
9BB783B659BB70
9BB783B659BB70
000083B6500000
000083B6500000
000083B6500000
000083B6500000
00006284400000
ENDCHAR
STARTCHAR plusminus.case
ENCODING -1
SWIDTH 618 0
DWIDTH 15 0
BBX 13 17 1 0
BITMAP
00006284400000
000083B6500000
000083B6500000
000083B6500000
9BB783B659BB70
000083B6500000
9BB783B659BB70
9BB783B659BB70
000083B6500000
000083B6500000
000083B6500000
000083B6500000
00006284400000
9BBBBBBBBBBB70
00000000000000
9BBBBBBBBBBB70
9BBBBBBBBBBB70
ENDCHAR
STARTCHAR question.case
ENCODING -1
SWIDTH 598 0
DWIDTH 14 0
BBX 13 20 1 0
BITMAP
0006BBBB810000
01B710004B4000
0A329CBA41B200
484B8BBAA73900
92C4A0059B2B00
B2983000B57A10
00000000B38920
00000008556B00
000000A62B3900
00000A43B3B100
0000484A4B2000
000092C3B10000
0000B298300000
0000B37A100000
00007256100000
00000000000000
0000B389100000
0000B389100000
0000B389100000
0000B389100000
ENDCHAR
STARTCHAR questiondown.case
ENCODING -1
SWIDTH 598 0
DWIDTH 14 0
BBX 13 20 1 -5
BITMAP
0000B288200000
0000B288200000
0000B288200000
0000B288200000
00000000000000
00007165200000
0000B298300000
0000B389200000
0007794B000000
0097693A000000
095971B2000000
48852B20000000
93A1A100000000
B3883000000000
B1A83000B48910
92B6A005893B00
483B8BB9993900
0A428BBB51B200
01B710004B4000
0006BBBB820000
ENDCHAR
STARTCHAR quotedbl.case
ENCODING -1
SWIDTH 464 0
DWIDTH 11 0
BBX 11 6 0 14
BITMAP
65B47056B380
65B47056B380
65B47056B380
65B47056B380
65B47056B380
65B47056B380
ENDCHAR
STARTCHAR quotedblbase.case
ENCODING -1
SWIDTH 464 0
DWIDTH 11 0
BBX 11 6 0 -1
BITMAP
65B47055B380
65B47055B380
65B47055B380
65B47055B380
00B47000B380
00B47000B380
ENDCHAR
STARTCHAR quotedblleft.case
ENCODING -1
SWIDTH 464 0
DWIDTH 11 0
BBX 11 6 0 12
BITMAP
65B00056B000
65B00056B000
65B38056B380
65B38056B380
65B38056B380
65B38056B380
ENDCHAR
STARTCHAR quotedblright.case
ENCODING -1
SWIDTH 464 0
DWIDTH 11 0
BBX 11 6 0 14
BITMAP
65B47055B380
65B47055B380
65B47055B380
65B47055B380
00B47000B380
00B47000B380
ENDCHAR
STARTCHAR quoteleft.case
ENCODING -1
SWIDTH 212 0
DWIDTH 5 0
BBX 5 6 0 12
BITMAP
65B000
65B000
65B380
65B380
65B380
65B380
ENDCHAR
STARTCHAR quoteright.case
ENCODING -1
SWIDTH 212 0
DWIDTH 5 0
BBX 5 6 0 14
BITMAP
65B470
65B470
65B470
65B470
00B470
00B470
ENDCHAR
STARTCHAR quotesinglbase.case
ENCODING -1
SWIDTH 212 0
DWIDTH 5 0
BBX 5 6 0 -1
BITMAP
65B470
65B470
65B470
65B470
00B470
00B470
ENDCHAR
STARTCHAR quotesingle.case
ENCODING -1
SWIDTH 212 0
DWIDTH 5 0
BBX 5 6 0 14
BITMAP
65B470
65B470
65B470
65B470
65B470
65B470
ENDCHAR
STARTCHAR registered.case
ENCODING -1
SWIDTH 895 0
DWIDTH 21 0
BBX 21 20 0 0
BITMAP
00000027BBBBB940000000
000018B89BBBA99B400000
0002B7A9400016C7B60000
001C5C3000000009895000
00A5C2000000000096B200
039840096CBBB9100B4A00
0A3B000B740004B0057A20
0C56000B7CBBC39200B560
2993000B740039A100B290
48A1000B7CBBC8A00092B0
48A1000B7CBECA000092B0
2993000B740B2A0000B390
0C56000B74066A1000B560
0A3B000B7401B570058A20
0498400A6400A2B00B4A00
00A5C2000000000086B200
001C5C3000000009896000
0002C7A9300016C7B60000
000018B89BBBA99B400000
00000027BBBBB940000000
ENDCHAR
STARTCHAR uni030A.case
ENCODING -1
SWIDTH 0 0
DWIDTH 0 0
BBX 6 5 1 21
BITMAP
08BB30
8601B1
B00083
8601B1
08BB30
ENDCHAR
STARTCHAR section.case
ENCODING -1
SWIDTH 645 0
DWIDTH 15 0
BBX 15 24 0 -3
BITMAP
000027BBBB830000
0006BBCBBCAAA100
0059B500005C5B10
00B562ABBA52C480
00A64B2001965120
00B3988300000000
00B18968BA500000
003B14AC967B3000
0003C72037C4B200
0027059B941B3A00
01B3A34228856B00
066A3A5000B37A10
083B560004965B00
073B2B20765A3900
0387629B9531A100
00A58A4015A81000
0009947AB713B100
000039A855B62900
000000026B6A3B00
0021710001B46A00
19773ABBBB475B00
087A9300027A9600
007B9ABBBB9B7000
00016ABBBB720000
ENDCHAR
STARTCHAR semicolon.case
ENCODING -1
SWIDTH 338 0
DWIDTH 8 0
BBX 6 15 1 -2
BITMAP
00B64B
00B64B
00B64B
00B64B
000000
000000
000000
000000
000000
04792B
083B47
0B3983
1A74B0
65A2A0
A2B660
ENDCHAR
STARTCHAR seven.case
ENCODING -1
SWIDTH 505 0
DWIDTH 12 0
BBX 12 20 0 0
BITMAP
3BBBBBBBBBB2
000000000000
3BBBBBBBBBB2
000000000000
3BBBBBBBBBB2
000000132130
00000056A2A0
00000092B560
000000B47920
000003983B00
0000074B3800
00000B297400
00001A65B000
000056A2A000
000092B56000
0000B4792000
0003883B0000
00074B380000
000B29740000
001A65B00000
ENDCHAR
STARTCHAR six.case
ENCODING -1
SWIDTH 558 0
DWIDTH 13 0
BBX 13 20 0 0
BITMAP
00029BBBB50000
005B8ABB88A000
03A791005B6900
0B4A19BB468A20
1A84A301B2B470
37A2A00056B290
47B29000000000
47B29000000000
47B296BB930000
47B29000399000
47B296BB926800
47B296BB6C2A20
47B29001B5A470
47B2900046B290
37A2A00046A290
1A84A301B2B470
0B4A19BB449A20
04A791004B6900
006B7ABB99A100
00029BBBB50000
ENDCHAR
STARTCHAR slash.case
ENCODING -1
SWIDTH 504 0
DWIDTH 12 0
BBX 12 23 0 -1
BITMAP
000000033516
000000093B48
0000000B4893
0000004893B0
00000093B480
000000B48930
000004893B00
0000093B4800
00000B489300
00004893B000
000093B48000
0000B4893000
0004893B0000
00093B480000
000B48930000
004893C00000
0093B4800000
00B489300000
04893C000000
093B48000000
0B4893000000
4893C0000000
93B480000000
ENDCHAR
STARTCHAR uni00AD.case
ENCODING -1
SWIDTH 445 0
DWIDTH 11 0
BBX 9 4 1 8
BITMAP
9BBBBBBB50
0000000000
9BBBBBBB50
9BBBBBBB50
ENDCHAR
STARTCHAR sterling.case
ENCODING -1
SWIDTH 618 0
DWIDTH 15 0
BBX 15 20 0 0
BITMAP
00006BBBBB600000
003C6100016B2000
01C239CBB932C200
0847AABBB9983A00
0B2A860007885A00
0B56B00000812000
0A39650000000000
0213030000000000
6BBBBBBBBB800000
0000000000000000
6BBBBBBBBB800000
6BBBBBBBBB800000
0000000000000000
01B3B57000000000
0939290000000000
0000000000000000
9BBBBBBBBBBBBB20
0000000000000000
9BBBBBBBBBBBBB20
9BBBBBBBBBBBBB20
ENDCHAR
STARTCHAR three.case
ENCODING -1
SWIDTH 558 0
DWIDTH 13 0
BBX 13 20 0 0
BITMAP
00029BBBB50000
005B7ABB99A000
03A791005B6800
0B3B19BB458A20
1A74A401B2B470
37A2A00056A290
0000000047A290
0000000042B370
0000003B932830
00000000399200
0000003B926800
0000003B6C2A20
00000001B5A470
0000000046B290
37A2A00046A290
1A74A301B2B470
0B3B19BB449A20
03A791004B6900
005B7ABB99A100
00029BBBB50000
ENDCHAR
STARTCHAR threequarters.case
ENCODING -1
SWIDTH 722 0
DWIDTH 17 0
BBX 16 20 1 0
BITMAP
19BB900000066930
94BA5800001B3A00
31342A000075A200
000B710001B39000
00009600084B1000
000A1A002A480000
51493A0093B10000
86AA9502A5700000
08BB600A2B000000
0000003966000000
000000B2B0000000
00000487500B2A00
00000B2B00579300
0000579400B3A000
0000B2A0076A2000
0007693000003892
001B39000ABB3892
0085A2000ABB3892
01B4900000003892
094B100000000000
ENDCHAR
STARTCHAR uni00B3.case
ENCODING -1
SWIDTH 332 0
DWIDTH 8 0
BBX 6 9 1 11
BITMAP
19BB90
94BA58
31342A
000B71
000096
000A1A
51493A
86AA95
08BB60
ENDCHAR
STARTCHAR tildecomb.case
ENCODING -1
SWIDTH 0 0
DWIDTH 0 0
BBX 10 3 1 21
BITMAP
18BB300053
8602B601C1
800008BB40
ENDCHAR
STARTCHAR trademark.case
ENCODING -1
SWIDTH 850 0
DWIDTH 20 0
BBX 20 10 0 10
BITMAP
9BBBBBBB2A2E20004D47
000000000A2CB001CC47
9BBDCCBB2A2A680B3B47
000B65000A2F49B67D47
000B65000A2AB2C6AB47
000B65000A2A2B3C1B47
000B65000A2A05900B47
000B65000A2A00200B47
000B65000A2A00000B47
000B65000A2A00000B47
ENDCHAR
STARTCHAR two.case
ENCODING -1
SWIDTH 558 0
DWIDTH 13 0
BBX 13 20 0 0
BITMAP
00029BBBB50000
005B300018A000
03A06BBB815800
0B1A9ABB8B1A20
1A58A401B59470
37A3A00056B290
0000000056A2A0
00000000B2B380
00000008749930
000000692B4A00
000005A1B3C200
00003B1B4B4000
0002C2B4B50000
001C2A59700000
01B39688000000
01213030000000
08BBBBBBBBBB10
00000000000000
08BBBBBBBBBB10
08BBBBBBBBBB10
ENDCHAR
STARTCHAR uni00B2.case
ENCODING -1
SWIDTH 339 0
DWIDTH 8 0
BBX 6 9 1 11
BITMAP
06BBA1
390049
83AB2B
41594B
02A4B3
171630
9BBBB9
000000
9BBBB9
ENDCHAR
STARTCHAR underscore.case
ENCODING -1
SWIDTH 667 0
DWIDTH 16 0
BBX 14 4 1 0
BITMAP
9BBBBBBBBBBBB9
00000000000000
9BBBBBBBBBBBB9
9BBBBBBBBBBBB9
ENDCHAR
STARTCHAR yen.case
ENCODING -1
SWIDTH 769 0
DWIDTH 18 0
BBX 19 20 0 0
BITMAP
6785940000000B2B2B10
0B2B2B00000067859400
02B495800002B3A49000
007694A3000B3B2B1000
000B2B2B006776850000
0003A48671B3B3A00000
000085A3B32B3B100000
00001C2B3B2776000000
000004957762B0000000
00000094A3B220000000
00000013132200000000
00000008276200000000
0004BB5B2983BB900000
0000000B298300000000
0004BB5B2983BB900000
0000000B298300000000
0004BB5B2983BB900000
0000000B298300000000
0000000B298300000000
0000000B298300000000
ENDCHAR
STARTCHAR zero.case
ENCODING -1
SWIDTH 558 0
DWIDTH 13 0
BBX 13 20 0 0
BITMAP
00029BBBB50000
005B8ABB99A100
03A791005B6900
0B4A19BB458A20
1A84A301B2B470
37A2A00046A390
47B290003892A0
47B290003892A0
47B290003892A0
47B290003892A0
47B290003892A0
47B290003892A0
47B290003892A0
47B290003892A0
37A2A00046A390
1A84A301B2B470
0B4A19BB448A20
04A791005B6900
006B7ABB98A100
00029BBBB50000
ENDCHAR
ENDFONT
